999
dxfrw 0.6.3
  0
SECTION
  2
HEADER
  9
$ACADVER
  1
AC1021
  9
$DWGCODEPAGE
  3
ANSI_1252
  9
$INSBASE
 10
0
 20
0
 30
0
  9
$EXTMIN
 10
-0.84
 20
-0.84
 30
0
  9
$EXTMAX
 10
118.5881401864377
 20
49.45021512109366
 30
0
  9
$LIMMIN
 10
0
 20
0
  9
$LIMMAX
 10
12
 20
9
  9
$ORTHOMODE
 70
    0
  9
$REGENMODE
 70
    1
  9
$FILLMODE
 70
    1
  9
$QTEXTMODE
 70
    0
  9
$MIRRTEXT
 70
    1
  9
$LTSCALE
 40
1
  9
$ATTMODE
 70
    1
  9
$TEXTSIZE
 40
1
  9
$TRACEWID
 40
0.05
  9
$TEXTSTYLE
  7
STANDARD
  9
$CLAYER
  8
0
  9
$CELTYPE
  6
ByBlock
  9
$CECOLOR
 62
  256
  9
$CELTSCALE
 40
1
  9
$DISPSILH
 70
    0
  9
$DIMSCALE
 40
1
  9
$DIMASZ
 40
0.18
  9
$DIMEXO
 40
0.0625
  9
$DIMDLI
 40
0.38
  9
$DIMRND
 40
0
  9
$DIMDLE
 40
0
  9
$DIMEXE
 40
0.18
  9
$DIMTP
 40
0
  9
$DIMTM
 40
0
  9
$DIMTXT
 40
0.18
  9
$DIMCEN
 40
0.09
  9
$DIMTSZ
 40
0
  9
$DIMTOL
 70
    0
  9
$DIMLIM
 70
    0
  9
$DIMTIH
 70
    1
  9
$DIMTOH
 70
    1
  9
$DIMSE1
 70
    0
  9
$DIMSE2
 70
    0
  9
$DIMTAD
 70
    0
  9
$DIMZIN
 70
    0
  9
$DIMBLK
  1

  9
$DIMASO
 70
    1
  9
$DIMSHO
 70
    1
  9
$DIMPOST
  1

  9
$DIMAPOST
  1

  9
$DIMALT
 70
    0
  9
$DIMALTD
 70
    2
  9
$DIMALTF
 40
25.4
  9
$DIMLFAC
 40
1
  9
$DIMTOFL
 70
    0
  9
$DIMTVP
 40
0
  9
$DIMTIX
 70
    0
  9
$DIMSOXD
 70
    0
  9
$DIMSAH
 70
    0
  9
$DIMBLK1
  1

  9
$DIMBLK2
  1

  9
$DIMSTYLE
  2
Standard
  9
$DIMCLRD
 70
    0
  9
$DIMCLRE
 70
    0
  9
$DIMCLRT
 70
    0
  9
$DIMTFAC
 40
1
  9
$DIMGAP
 40
0.09
  9
$DIMJUST
 70
    0
  9
$DIMSD1
 70
    0
  9
$DIMSD2
 70
    0
  9
$DIMTOLJ
 70
    1
  9
$DIMTZIN
 70
    0
  9
$DIMALTZ
 70
    0
  9
$DIMALTTZ
 70
    0
  9
$DIMUPT
 70
    0
  9
$DIMDEC
 70
    4
  9
$DIMTDEC
 70
    4
  9
$DIMALTU
 70
    2
  9
$DIMALTTD
 70
    2
  9
$DIMTXSTY
  7
STANDARD
  9
$DIMAUNIT
 70
    0
  9
$DIMADEC
 70
    0
  9
$DIMALTRND
 40
0
  9
$DIMAZIN
 70
    0
  9
$DIMDSEP
 70
   46
  9
$DIMATFIT
 70
    3
  9
$DIMFRAC
 70
    0
  9
$DIMLDRBLK
  1

  9
$DIMLUNIT
 70
    2
  9
$DIMLWD
 70
   -2
  9
$DIMLWE
 70
   -2
  9
$DIMTMOVE
 70
    2
  9
$DIMFXL
 40
1
  9
$DIMFXLON
 70
    0
  9
$DIMJOGANG
 40
0.7854
  9
$DIMTFILL
 70
    0
  9
$DIMTFILLCLR
 70
    0
  9
$DIMARCSYM
 70
    0
  9
$DIMLTYPE
  6

  9
$DIMLTEX1
  6

  9
$DIMLTEX2
  6

  9
$LUNITS
 70
    2
  9
$LUPREC
 70
    4
  9
$SKETCHINC
 40
0.1
  9
$FILLETRAD
 40
0.5
  9
$AUNITS
 70
    0
  9
$AUPREC
 70
    0
  9
$MENU
  1
.
  9
$ELEVATION
 40
0
  9
$PELEVATION
 40
0
  9
$THICKNESS
 40
0
  9
$LIMCHECK
 70
    0
  9
$CHAMFERA
 40
0
  9
$CHAMFERB
 40
0
  9
$CHAMFERC
 40
0
  9
$CHAMFERD
 40
0
  9
$SKPOLY
 70
    0
  9
$USRTIMER
 70
    1
  9
$ANGBASE
 50
0
  9
$ANGDIR
 70
    0
  9
$PDMODE
 70
    0
  9
$PDSIZE
 40
0
  9
$PLINEWID
 40
0
  9
$SPLFRAME
 70
    0
  9
$SPLINETYPE
 70
    6
  9
$SPLINESEGS
 70
    8
  9
$HANDSEED
  5
20000
  9
$SURFTAB1
 70
    6
  9
$SURFTAB2
 70
    6
  9
$SURFTYPE
 70
    6
  9
$SURFU
 70
    6
  9
$SURFV
 70
    6
  9
$UCSBASE
  2

  9
$UCSNAME
  2

  9
$UCSORG
 10
0
 20
0
 30
0
  9
$UCSXDIR
 10
1
 20
0
 30
0
  9
$UCSYDIR
 10
0
 20
1
 30
0
  9
$UCSORTHOREF
  2

  9
$UCSORTHOVIEW
 70
    0
  9
$UCSORGTOP
 10
0
 20
0
 30
0
  9
$UCSORGBOTTOM
 10
0
 20
0
 30
0
  9
$UCSORGLEFT
 10
0
 20
0
 30
0
  9
$UCSORGRIGHT
 10
0
 20
0
 30
0
  9
$UCSORGFRONT
 10
0
 20
0
 30
0
  9
$UCSORGBACK
 10
0
 20
0
 30
0
  9
$PUCSBASE
  2

  9
$PUCSNAME
  2

  9
$PUCSORG
 10
0
 20
0
 30
0
  9
$PUCSXDIR
 10
1
 20
0
 30
0
  9
$PUCSYDIR
 10
0
 20
1
 30
0
  9
$PUCSORTHOREF
  2

  9
$PUCSORTHOVIEW
 70
    0
  9
$PUCSORGTOP
 10
0
 20
0
 30
0
  9
$PUCSORGBOTTOM
 10
0
 20
0
 30
0
  9
$PUCSORGLEFT
 10
0
 20
0
 30
0
  9
$PUCSORGRIGHT
 10
0
 20
0
 30
0
  9
$PUCSORGFRONT
 10
0
 20
0
 30
0
  9
$PUCSORGBACK
 10
0
 20
0
 30
0
  9
$USERI1
 70
    0
  9
$USERI2
 70
    0
  9
$USERI3
 70
    0
  9
$USERI4
 70
    0
  9
$USERI5
 70
    0
  9
$USERR1
 40
0
  9
$USERR2
 40
0
  9
$USERR3
 40
0
  9
$USERR4
 40
0
  9
$USERR5
 40
0
  9
$WORLDVIEW
 70
    1
  9
$SHADEDGE
 70
    3
  9
$SHADEDIF
 70
   70
  9
$TILEMODE
 70
    1
  9
$MAXACTVP
 70
   64
  9
$PINSBASE
 10
0
 20
0
 30
0
  9
$PLIMCHECK
 70
    0
  9
$PEXTMIN
 10
1e+020
 20
1e+020
 30
1e+020
  9
$PEXTMAX
 10
-1e+020
 20
-1e+020
 30
-1e+020
  9
$GRIDMODE
 70
    0
  9
$SNAPSTYLE
 70
    0
  9
$PLIMMIN
 10
0
 20
0
  9
$PLIMMAX
 10
0
 20
0
  9
$UNITMODE
 70
    0
  9
$VISRETAIN
 70
    1
  9
$PLINEGEN
 70
    0
  9
$PSLTSCALE
 70
    1
  9
$TREEDEPTH
 70
 3020
  9
$CMLSTYLE
  2
Standard
  9
$CMLJUST
 70
    0
  9
$CMLSCALE
 40
1
  9
$PROXYGRAPHICS
 70
    1
  9
$MEASUREMENT
 70
    0
  9
$CELWEIGHT
370
   -1
  9
$ENDCAPS
280
    0
  9
$JOINSTYLE
280
    0
  9
$LWDISPLAY
290
    0
  9
$INSUNITS
 70
    1
  9
$HYPERLINKBASE
  1

  9
$STYLESHEET
  1

  9
$XEDIT
290
    1
  9
$CEPSNTYPE
380
    0
  9
$PSTYLEMODE
290
    1
  9
$EXTNAMES
290
    1
  9
$PSVPSCALE
 40
0
  9
$OLESTARTUP
290
    0
  9
$SORTENTS
280
  127
  9
$INDEXCTL
280
    0
  9
$HIDETEXT
280
    1
  9
$XCLIPFRAME
290
    0
  9
$HALOGAP
280
    0
  9
$OBSCOLOR
 70
  257
  9
$OBSLTYPE
280
    0
  9
$INTERSECTIONDISPLAY
280
    0
  9
$INTERSECTIONCOLOR
 70
  257
  9
$DIMASSOC
280
    1
  9
$PROJECTNAME
  1

  9
$CAMERADISPLAY
290
    0
  9
$LENSLENGTH
 40
50
  9
$CAMERAHEIGHT
 40
0
  9
$STEPSPERSEC
 40
2
  9
$STEPSIZE
 40
50
  9
$3DDWFPREC
 40
2
  9
$PSOLWIDTH
 40
5
  9
$PSOLHEIGHT
 40
80
  9
$LOFTANG1
 40
1.570796326794897
  9
$LOFTANG2
 40
1.570796326794897
  9
$LOFTMAG1
 40
0
  9
$LOFTMAG2
 40
0
  9
$LOFTPARAM
 70
    7
  9
$LOFTNORMALS
280
    1
  9
$LATITUDE
 40
1
  9
$LONGITUDE
 40
1
  9
$NORTHDIRECTION
 40
0
  9
$TIMEZONE
 70
-8000
  9
$LIGHTGLYPHDISPLAY
280
    1
  9
$TILEMODELIGHTSYNCH
280
    1
  9
$SOLIDHIST
280
    1
  9
$SHOWHIST
280
    1
  9
$DWFFRAME
280
    2
  9
$DGNFRAME
280
    0
  9
$REALWORLDSCALE
290
    1
  9
$INTERFERECOLOR
 62
    1
  9
$CSHADOW
280
    0
  9
$SHADOWPLANELOCATION
 40
0
  0
ENDSEC
  0
SECTION
  2
CLASSES
  0
ENDSEC
  0
SECTION
  2
TABLES
  0
TABLE
  2
VPORT
  5
8
330
0
100
AcDbSymbolTable
 70
    1
  0
VPORT
  5
31
330
2
100
AcDbSymbolTableRecord
100
AcDbViewportTableRecord
  2
*ACTIVE
 70
    0
 10
0
 20
0
 11
1
 21
1
 12
34.12331946651318
 22
27.60268514876213
 13
0
 23
0
 14
10
 24
10
 15
10
 25
10
 16
0
 26
0
 36
1
 17
0
 27
0
 37
0
 40
42.88417170938116
 41
1.955223880597015
 42
50
 43
0
 44
0
 50
0
 51
0
 71
    0
 72
  100
 73
    1
 74
    3
 75
    0
 76
    0
 77
    0
 78
    0
281
    0
 65
    1
110
0
120
0
130
0
111
1
121
0
131
0
112
0
122
1
132
0
 79
    0
146
0
348
10020
 60
    7
 61
    5
292
1
282
    1
141
0
142
0
 63
  250
421
3358443
  0
ENDTAB
  0
TABLE
  2
LTYPE
  5
5
330
0
100
AcDbSymbolTable
 70
    4
  0
LTYPE
  5
14
330
5
100
AcDbSymbolTableRecord
100
AcDbLinetypeTableRecord
  2
ByBlock
 70
    0
  3

 72
   65
 73
    0
 40
0
  0
LTYPE
  5
15
330
5
100
AcDbSymbolTableRecord
100
AcDbLinetypeTableRecord
  2
ByLayer
 70
    0
  3

 72
   65
 73
    0
 40
0
  0
LTYPE
  5
16
330
5
100
AcDbSymbolTableRecord
100
AcDbLinetypeTableRecord
  2
Continuous
 70
    0
  3
Solid line
 72
   65
 73
    0
 40
0
  0
LTYPE
  5
32
330
5
100
AcDbSymbolTableRecord
100
AcDbLinetypeTableRecord
  2
DOT
 70
    0
  3
Dot . . . . . . . . . . . . . . . . . . . . . .
 72
   65
 73
    2
 40
6.35
 49
0
 74
    0
 49
-6.35
 74
    0
  0
LTYPE
  5
33
330
5
100
AcDbSymbolTableRecord
100
AcDbLinetypeTableRecord
  2
DOTTINY
 70
    0
  3
Dot (.15x) .....................................
 72
   65
 73
    2
 40
0.9525
 49
0
 74
    0
 49
-0.9525
 74
    0
  0
LTYPE
  5
34
330
5
100
AcDbSymbolTableRecord
100
AcDbLinetypeTableRecord
  2
DOT2
 70
    0
  3
Dot (.5x) .....................................
 72
   65
 73
    2
 40
3.175
 49
0
 74
    0
 49
-3.175
 74
    0
  0
LTYPE
  5
35
330
5
100
AcDbSymbolTableRecord
100
AcDbLinetypeTableRecord
  2
DOTX2
 70
    0
  3
Dot (2x) .  .  .  .  .  .  .  .  .  .  .  .  .
 72
   65
 73
    2
 40
12.7
 49
0
 74
    0
 49
-12.7
 74
    0
  0
LTYPE
  5
36
330
5
100
AcDbSymbolTableRecord
100
AcDbLinetypeTableRecord
  2
DASHED
 70
    0
  3
Dashed _ _ _ _ _ _ _ _ _ _ _ _ _ _ _ _ _
 72
   65
 73
    2
 40
19.05
 49
12.7
 74
    0
 49
-6.35
 74
    0
  0
LTYPE
  5
37
330
5
100
AcDbSymbolTableRecord
100
AcDbLinetypeTableRecord
  2
DASHEDTINY
 70
    0
  3
Dashed (.15x) _ _ _ _ _ _ _ _ _ _ _ _ _ _ _ _ _
 72
   65
 73
    2
 40
2.8575
 49
1.905
 74
    0
 49
-0.9525
 74
    0
  0
LTYPE
  5
38
330
5
100
AcDbSymbolTableRecord
100
AcDbLinetypeTableRecord
  2
DASHED2
 70
    0
  3
Dashed (.5x) _ _ _ _ _ _ _ _ _ _ _ _ _ _ _ _ _
 72
   65
 73
    2
 40
9.524999999999999
 49
6.35
 74
    0
 49
-3.175
 74
    0
  0
LTYPE
  5
39
330
5
100
AcDbSymbolTableRecord
100
AcDbLinetypeTableRecord
  2
DASHEDX2
 70
    0
  3
Dashed (2x) ____  ____  ____  ____  ____  ___
 72
   65
 73
    2
 40
38.09999999999999
 49
25.4
 74
    0
 49
-12.7
 74
    0
  0
LTYPE
  5
3A
330
5
100
AcDbSymbolTableRecord
100
AcDbLinetypeTableRecord
  2
DASHDOT
 70
    0
  3
Dash dot __ . __ . __ . __ . __ . __ . __ . __
 72
   65
 73
    4
 40
25.4
 49
12.7
 74
    0
 49
-6.35
 74
    0
 49
0
 74
    0
 49
-6.35
 74
    0
  0
LTYPE
  5
3B
330
5
100
AcDbSymbolTableRecord
100
AcDbLinetypeTableRecord
  2
DASHDOTTINY
 70
    0
  3
Dash dot (.15x) _._._._._._._._._._._._._._._.
 72
   65
 73
    4
 40
3.81
 49
1.905
 74
    0
 49
-0.9525
 74
    0
 49
0
 74
    0
 49
-0.9525
 74
    0
  0
LTYPE
  5
3C
330
5
100
AcDbSymbolTableRecord
100
AcDbLinetypeTableRecord
  2
DASHDOT2
 70
    0
  3
Dash dot (.5x) _._._._._._._._._._._._._._._.
 72
   65
 73
    4
 40
12.7
 49
6.35
 74
    0
 49
-3.175
 74
    0
 49
0
 74
    0
 49
-3.175
 74
    0
  0
LTYPE
  5
3D
330
5
100
AcDbSymbolTableRecord
100
AcDbLinetypeTableRecord
  2
DASHDOTX2
 70
    0
  3
Dash dot (2x) ____  .  ____  .  ____  .  ___
 72
   65
 73
    4
 40
50.8
 49
25.4
 74
    0
 49
-12.7
 74
    0
 49
0
 74
    0
 49
-12.7
 74
    0
  0
LTYPE
  5
3E
330
5
100
AcDbSymbolTableRecord
100
AcDbLinetypeTableRecord
  2
DIVIDE
 70
    0
  3
Divide ____ . . ____ . . ____ . . ____ . . ____
 72
   65
 73
    6
 40
31.75
 49
12.7
 74
    0
 49
-6.35
 74
    0
 49
0
 74
    0
 49
-6.35
 74
    0
 49
0
 74
    0
 49
-6.35
 74
    0
  0
LTYPE
  5
3F
330
5
100
AcDbSymbolTableRecord
100
AcDbLinetypeTableRecord
  2
DIVIDETINY
 70
    0
  3
Divide (.15x) __..__..__..__..__..__..__..__.._
 72
   65
 73
    6
 40
4.7625
 49
1.905
 74
    0
 49
-0.9525
 74
    0
 49
0
 74
    0
 49
-0.9525
 74
    0
 49
0
 74
    0
 49
-0.9525
 74
    0
  0
LTYPE
  5
40
330
5
100
AcDbSymbolTableRecord
100
AcDbLinetypeTableRecord
  2
DIVIDE2
 70
    0
  3
Divide (.5x) __..__..__..__..__..__..__..__.._
 72
   65
 73
    6
 40
15.875
 49
6.35
 74
    0
 49
-3.175
 74
    0
 49
0
 74
    0
 49
-3.175
 74
    0
 49
0
 74
    0
 49
-3.175
 74
    0
  0
LTYPE
  5
41
330
5
100
AcDbSymbolTableRecord
100
AcDbLinetypeTableRecord
  2
DIVIDEX2
 70
    0
  3
Divide (2x) ________  .  .  ________  .  .  _
 72
   65
 73
    6
 40
63.5
 49
25.4
 74
    0
 49
-12.7
 74
    0
 49
0
 74
    0
 49
-12.7
 74
    0
 49
0
 74
    0
 49
-12.7
 74
    0
  0
LTYPE
  5
42
330
5
100
AcDbSymbolTableRecord
100
AcDbLinetypeTableRecord
  2
BORDER
 70
    0
  3
Border __ __ . __ __ . __ __ . __ __ . __ __ .
 72
   65
 73
    6
 40
44.45
 49
12.7
 74
    0
 49
-6.35
 74
    0
 49
12.7
 74
    0
 49
-6.35
 74
    0
 49
0
 74
    0
 49
-6.35
 74
    0
  0
LTYPE
  5
43
330
5
100
AcDbSymbolTableRecord
100
AcDbLinetypeTableRecord
  2
BORDERTINY
 70
    0
  3
Border (.15x) __.__.__.__.__.__.__.__.__.__.__.
 72
   65
 73
    6
 40
6.6675
 49
1.905
 74
    0
 49
-0.9525
 74
    0
 49
1.905
 74
    0
 49
-0.9525
 74
    0
 49
0
 74
    0
 49
-0.9525
 74
    0
  0
LTYPE
  5
44
330
5
100
AcDbSymbolTableRecord
100
AcDbLinetypeTableRecord
  2
BORDER2
 70
    0
  3
Border (.5x) __.__.__.__.__.__.__.__.__.__.__.
 72
   65
 73
    6
 40
22.225
 49
6.35
 74
    0
 49
-3.175
 74
    0
 49
6.35
 74
    0
 49
-3.175
 74
    0
 49
0
 74
    0
 49
-3.175
 74
    0
  0
LTYPE
  5
45
330
5
100
AcDbSymbolTableRecord
100
AcDbLinetypeTableRecord
  2
BORDERX2
 70
    0
  3
Border (2x) ____  ____  .  ____  ____  .  ___
 72
   65
 73
    6
 40
88.89999999999999
 49
25.4
 74
    0
 49
-12.7
 74
    0
 49
25.4
 74
    0
 49
-12.7
 74
    0
 49
0
 74
    0
 49
-12.7
 74
    0
  0
LTYPE
  5
46
330
5
100
AcDbSymbolTableRecord
100
AcDbLinetypeTableRecord
  2
CENTER
 70
    0
  3
Center ____ _ ____ _ ____ _ ____ _ ____ _ ____
 72
   65
 73
    4
 40
50.8
 49
31.75
 74
    0
 49
-6.35
 74
    0
 49
6.35
 74
    0
 49
-6.35
 74
    0
  0
LTYPE
  5
47
330
5
100
AcDbSymbolTableRecord
100
AcDbLinetypeTableRecord
  2
CENTERTINY
 70
    0
  3
Center (.15x) ___ _ ___ _ ___ _ ___ _ ___ _ ___
 72
   65
 73
    4
 40
7.62
 49
4.7625
 74
    0
 49
-0.9525
 74
    0
 49
0.9525
 74
    0
 49
-0.9525
 74
    0
  0
LTYPE
  5
48
330
5
100
AcDbSymbolTableRecord
100
AcDbLinetypeTableRecord
  2
CENTER2
 70
    0
  3
Center (.5x) ___ _ ___ _ ___ _ ___ _ ___ _ ___
 72
   65
 73
    4
 40
28.575
 49
19.05
 74
    0
 49
-3.175
 74
    0
 49
3.175
 74
    0
 49
-3.175
 74
    0
  0
LTYPE
  5
49
330
5
100
AcDbSymbolTableRecord
100
AcDbLinetypeTableRecord
  2
CENTERX2
 70
    0
  3
Center (2x) ________  __  ________  __  _____
 72
   65
 73
    4
 40
101.6
 49
63.5
 74
    0
 49
-12.7
 74
    0
 49
12.7
 74
    0
 49
-12.7
 74
    0
  0
ENDTAB
  0
TABLE
  2
LAYER
  5
2
330
0
100
AcDbSymbolTable
 70
    1
  0
LAYER
  5
10
330
2
100
AcDbSymbolTableRecord
100
AcDbLayerTableRecord
  2
0
 70
    0
 62
    7
  6
CONTINUOUS
370
   -3
390
F
  0
LAYER
  5
4A
330
2
100
AcDbSymbolTableRecord
100
AcDbLayerTableRecord
  2
Cancel
 70
    0
 62
   30
  6
CONTINUOUS
370
   -3
390
F
  0
LAYER
  5
4B
330
2
100
AcDbSymbolTableRecord
100
AcDbLayerTableRecord
  2
Columns
 70
    0
 62
    9
  6
CONTINUOUS
370
   -3
390
F
  0
LAYER
  5
4C
330
2
100
AcDbSymbolTableRecord
100
AcDbLayerTableRecord
  2
Crystal
 70
    0
 62
    4
  6
CONTINUOUS
370
   -3
390
F
  0
LAYER
  5
4D
330
2
100
AcDbSymbolTableRecord
100
AcDbLayerTableRecord
  2
Defpoints
 70
    0
 62
    7
  6
CONTINUOUS
290
0
370
   -3
390
F
  0
LAYER
  5
4E
330
2
100
AcDbSymbolTableRecord
100
AcDbLayerTableRecord
  2
Doors
 70
    0
 62
    3
  6
CONTINUOUS
370
   -3
390
F
  0
LAYER
  5
4F
330
2
100
AcDbSymbolTableRecord
100
AcDbLayerTableRecord
  2
Flooring
 70
    0
 62
    1
  6
CONTINUOUS
370
   -3
390
F
  0
LAYER
  5
50
330
2
100
AcDbSymbolTableRecord
100
AcDbLayerTableRecord
  2
Furniture
 70
    0
 62
    2
  6
CONTINUOUS
370
   -3
390
F
  0
LAYER
  5
51
330
2
100
AcDbSymbolTableRecord
100
AcDbLayerTableRecord
  2
Projection
 70
    0
 62
    5
  6
CONTINUOUS
370
   -3
390
F
  0
LAYER
  5
52
330
2
100
AcDbSymbolTableRecord
100
AcDbLayerTableRecord
  2
Roof
 70
    0
 62
    6
  6
CONTINUOUS
370
   -3
390
F
  0
LAYER
  5
53
330
2
100
AcDbSymbolTableRecord
100
AcDbLayerTableRecord
  2
Walls
 70
    0
 62
    7
  6
CONTINUOUS
370
   -3
390
F
  0
ENDTAB
  0
TABLE
  2
STYLE
  5
3
330
0
100
AcDbSymbolTable
 70
    3
  0
STYLE
  5
54
330
2
100
AcDbSymbolTableRecord
100
AcDbTextStyleTableRecord
  2
Standard
 70
    0
 40
0
 41
1
 50
0
 71
    0
 42
1
  3
txt
  4

  0
ENDTAB
  0
TABLE
  2
VIEW
  5
6
330
0
100
AcDbSymbolTable
 70
    0
  0
ENDTAB
  0
TABLE
  2
UCS
  5
7
330
0
100
AcDbSymbolTable
 70
    0
  0
ENDTAB
  0
TABLE
  2
APPID
  5
9
330
0
100
AcDbSymbolTable
 70
    1
  0
APPID
  5
12
330
9
100
AcDbSymbolTableRecord
100
AcDbRegAppTableRecord
  2
ACAD
 70
    0
  0
APPID
  5
55
330
9
100
AcDbSymbolTableRecord
100
AcDbRegAppTableRecord
  2
LibreCad
 70
    0
  0
ENDTAB
  0
TABLE
  2
DIMSTYLE
  5
A
330
0
100
AcDbSymbolTable
 70
    1
100
AcDbDimStyleTable
 71
    1
  0
DIMSTYLE
105
56
330
A
100
AcDbSymbolTableRecord
100
AcDbDimStyleTableRecord
  2
Standard
 70
    0
 40
1
 41
0.18
 42
0.0625
 43
0.38
 44
0.18
 45
0
 46
0
 47
0
 48
0
 49
1
140
0.18
141
0.09
142
0
143
25.4
144
1
145
0
146
1
147
0.09
148
0
 71
    0
 72
    0
 73
    1
 74
    1
 75
    0
 76
    0
 77
    0
 78
    0
 79
    0
170
    0
171
    2
172
    0
173
    0
174
    0
175
    0
176
    0
177
    0
178
    0
179
    0
271
    4
272
    4
273
    2
274
    2
275
    0
276
    0
277
    2
278
   46
279
    0
280
    0
281
    0
282
    0
283
    1
284
    0
285
    0
286
    0
288
    0
289
    3
340
STANDARD
341

371
   -2
372
   -2
  0
ENDTAB
  0
TABLE
  2
BLOCK_RECORD
  5
1
330
0
100
AcDbSymbolTable
 70
    2
  0
BLOCK_RECORD
  5
1F
330
1
100
AcDbSymbolTableRecord
100
AcDbBlockTableRecord
  2
*Model_Space
 70
    0
280
    1
281
    0
  0
BLOCK_RECORD
  5
1E
330
1
100
AcDbSymbolTableRecord
100
AcDbBlockTableRecord
  2
*Paper_Space
 70
    0
280
    1
281
    0
  0
ENDTAB
  0
ENDSEC
  0
SECTION
  2
BLOCKS
  0
BLOCK
  5
20
330
1F
100
AcDbEntity
  8
0
100
AcDbBlockBegin
  2
*Model_Space
 70
    0
 10
0
 20
0
 30
0
  3
*Model_Space
  1

  0
ENDBLK
  5
21
330
1F
100
AcDbEntity
  8
0
100
AcDbBlockEnd
  0
BLOCK
  5
1C
330
1B
100
AcDbEntity
  8
0
100
AcDbBlockBegin
  2
*Paper_Space
 70
    0
 10
0
 20
0
 30
0
  3
*Paper_Space
  1

  0
ENDBLK
  5
1D
330
1F
100
AcDbEntity
  8
0
100
AcDbBlockEnd
  0
ENDSEC
  0
SECTION
  2
ENTITIES
  0
LINE
  5
57
100
AcDbEntity
  8
Roof
  6
ByLayer
 62
  256
370
   -1
100
AcDbLine
 10
12.33240729222987
 20
40.05021512109366
 11
2.932407292229954
 21
40.05021512109366
  0
LINE
  5
58
100
AcDbEntity
  8
Roof
  6
ByLayer
 62
  256
370
   -1
100
AcDbLine
 10
2.932407292229954
 20
49.45021512109366
 11
12.33240729222987
 21
49.45021512109366
  0
LINE
  5
59
100
AcDbEntity
  8
Roof
  6
ByLayer
 62
  256
370
   -1
100
AcDbLine
 10
2.932407292229954
 20
40.05021512109366
 11
2.932407292229954
 21
49.45021512109366
  0
LINE
  5
5A
100
AcDbEntity
  8
Roof
  6
ByLayer
 62
  256
370
   -1
100
AcDbLine
 10
12.33240729222987
 20
40.05021512109366
 11
12.33240729222987
 21
49.45021512109366
  0
LINE
  5
5B
100
AcDbEntity
  8
Roof
  6
ByLayer
 62
  256
370
   -1
100
AcDbLine
 10
26.68240729222997
 20
30.80021512109366
 11
26.68240729222997
 21
43.70021512109366
  0
LINE
  5
5C
100
AcDbEntity
  8
Roof
  6
ByLayer
 62
  256
370
   -1
100
AcDbLine
 10
49.58240729222997
 20
30.80021512109366
 11
49.58240729222999
 21
43.70021512109366
  0
LINE
  5
5D
100
AcDbEntity
  8
Roof
  6
ByLayer
 62
  256
370
   -1
100
AcDbLine
 10
49.58240729222997
 20
30.80021512109366
 11
26.68240729222997
 21
30.80021512109366
  0
LINE
  5
5E
100
AcDbEntity
  8
Roof
  6
ByLayer
 62
  256
370
   -1
100
AcDbLine
 10
49.58240729222999
 20
43.70021512109366
 11
26.68240729222997
 21
43.70021512109366
  0
LINE
  5
5F
100
AcDbEntity
  8
Roof
  6
ByLayer
 62
  256
370
   -1
100
AcDbLine
 10
3.032407292229955
 20
40.15021512109354
 11
3.032407292229955
 21
49.35021512109366
  0
LINE
  5
60
100
AcDbEntity
  8
Roof
  6
ByLayer
 62
  256
370
   -1
100
AcDbLine
 10
3.032407292229955
 20
49.35021512109366
 11
12.23240729222988
 21
49.35021512109366
  0
LINE
  5
61
100
AcDbEntity
  8
Roof
  6
ByLayer
 62
  256
370
   -1
100
AcDbLine
 10
12.23240729222988
 20
40.15021512109363
 11
12.23240729222988
 21
49.35021512109366
  0
LINE
  5
62
100
AcDbEntity
  8
Roof
  6
ByLayer
 62
  256
370
   -1
100
AcDbLine
 10
12.23240729222988
 20
40.15021512109363
 11
3.032407292229955
 21
40.15021512109354
  0
LINE
  5
63
100
AcDbEntity
  8
Roof
  6
ByLayer
 62
  256
370
   -1
100
AcDbLine
 10
49.48240729223
 20
43.60021512109366
 11
26.78240729222998
 21
43.60021512109366
  0
LINE
  5
64
100
AcDbEntity
  8
Roof
  6
ByLayer
 62
  256
370
   -1
100
AcDbLine
 10
26.78240729222998
 20
30.90021512109366
 11
26.78240729222998
 21
43.60021512109366
  0
LINE
  5
65
100
AcDbEntity
  8
Roof
  6
ByLayer
 62
  256
370
   -1
100
AcDbLine
 10
49.48240729222997
 20
30.90021512109363
 11
26.78240729222998
 21
30.90021512109366
  0
LINE
  5
66
100
AcDbEntity
  8
Roof
  6
ByLayer
 62
  256
370
   -1
100
AcDbLine
 10
49.48240729222997
 20
30.90021512109363
 11
49.48240729223
 21
43.60021512109366
  0
LINE
  5
67
100
AcDbEntity
  8
Roof
  6
ByLayer
 62
  256
370
   -1
100
AcDbLine
 10
7.632407292229907
 20
49.35021512109366
 11
7.632407292229907
 21
40.15021512109363
  0
LINE
  5
68
100
AcDbEntity
  8
Roof
  6
ByLayer
 62
  256
370
   -1
100
AcDbLine
 10
7.632407292229907
 20
49.35021512109366
 11
10.21240729222993
 21
41.83021512109366
  0
LINE
  5
69
100
AcDbEntity
  8
Roof
  6
ByLayer
 62
  256
370
   -1
100
AcDbLine
 10
10.21240729222993
 20
41.83021512109366
 11
7.632407292229907
 21
40.15021512109363
  0
LINE
  5
6A
100
AcDbEntity
  8
Roof
  6
ByLayer
 62
  256
370
   -1
100
AcDbLine
 10
12.23240729222988
 20
40.15021512109363
 11
10.21240729222993
 21
41.83021512109366
  0
LINE
  5
6B
100
AcDbEntity
  8
Roof
  6
ByLayer
 62
  256
370
   -1
100
AcDbLine
 10
10.21240729222993
 20
41.83021512109366
 11
12.23240729222988
 21
49.35021512109366
  0
LINE
  5
6C
100
AcDbEntity
  8
Roof
  6
ByLayer
 62
  256
370
   -1
100
AcDbLine
 10
3.032407292229955
 20
49.35021512109366
 11
3.552407292229937
 21
42.75021512109366
  0
LINE
  5
6D
100
AcDbEntity
  8
Roof
  6
ByLayer
 62
  256
370
   -1
100
AcDbLine
 10
3.552407292229937
 20
42.75021512109366
 11
3.032407292229955
 21
40.15021512109354
  0
LINE
  5
6E
100
AcDbEntity
  8
Roof
  6
ByLayer
 62
  256
370
   -1
100
AcDbLine
 10
7.632407292229907
 20
49.35021512109366
 11
3.552407292229937
 21
42.75021512109366
  0
LINE
  5
6F
100
AcDbEntity
  8
Roof
  6
ByLayer
 62
  256
370
   -1
100
AcDbLine
 10
3.552407292229937
 20
42.75021512109366
 11
7.6324072922299
 21
40.15021512109363
  0
LINE
  5
70
100
AcDbEntity
  8
Roof
  6
ByLayer
 62
  256
370
   -1
100
AcDbLine
 10
3.81562650859474
 20
43.52825964590914
 11
3.515626508594735
 21
43.52825964590914
  0
LINE
  5
71
100
AcDbEntity
  8
Roof
  6
ByLayer
 62
  256
370
   -1
100
AcDbLine
 10
3.515626508594735
 20
43.52825964590914
 11
3.665626508594741
 21
43.37825964590912
  0
LINE
  5
72
100
AcDbEntity
  8
Roof
  6
ByLayer
 62
  256
370
   -1
100
AcDbLine
 10
3.815626508594725
 20
43.52825964590914
 11
3.665626508594741
 21
43.37825964590912
  0
LINE
  5
73
100
AcDbEntity
  8
Roof
  6
ByLayer
 62
  256
370
   -1
100
AcDbLine
 10
3.168571865183779
 20
42.90021512109371
 11
3.168571865183779
 21
42.60021512109366
  0
LINE
  5
74
100
AcDbEntity
  8
Roof
  6
ByLayer
 62
  256
370
   -1
100
AcDbLine
 10
3.168571865183779
 20
42.60021512109366
 11
3.31857186518377
 21
42.75021512109366
  0
LINE
  5
75
100
AcDbEntity
  8
Roof
  6
ByLayer
 62
  256
370
   -1
100
AcDbLine
 10
3.168571865183779
 20
42.90021512109363
 11
3.31857186518377
 21
42.75021512109366
  0
LINE
  5
76
100
AcDbEntity
  8
Roof
  6
ByLayer
 62
  256
370
   -1
100
AcDbLine
 10
3.936242719276109
 20
42.90021512109363
 11
3.786242719276125
 21
42.75021512109366
  0
LINE
  5
77
100
AcDbEntity
  8
Roof
  6
ByLayer
 62
  256
370
   -1
100
AcDbLine
 10
3.936242719276109
 20
42.60021512109366
 11
3.786242719276125
 21
42.75021512109366
  0
LINE
  5
78
100
AcDbEntity
  8
Roof
  6
ByLayer
 62
  256
370
   -1
100
AcDbLine
 10
3.936242719276109
 20
42.90021512109371
 11
3.936242719276109
 21
42.60021512109366
  0
LINE
  5
79
100
AcDbEntity
  8
Roof
  6
ByLayer
 62
  256
370
   -1
100
AcDbLine
 10
3.81562650859474
 20
41.97217059627826
 11
3.515626508594735
 21
41.97217059627826
  0
LINE
  5
7A
100
AcDbEntity
  8
Roof
  6
ByLayer
 62
  256
370
   -1
100
AcDbLine
 10
3.515626508594735
 20
41.97217059627826
 11
3.665626508594741
 21
42.12217059627823
  0
LINE
  5
7B
100
AcDbEntity
  8
Roof
  6
ByLayer
 62
  256
370
   -1
100
AcDbLine
 10
3.815626508594725
 20
41.97217059627826
 11
3.665626508594741
 21
42.12217059627823
  0
LINE
  5
7C
100
AcDbEntity
  8
Roof
  6
ByLayer
 62
  256
370
   -1
100
AcDbLine
 10
9.828571865183761
 20
41.98021512109363
 11
9.828571865183761
 21
41.68021512109363
  0
LINE
  5
7D
100
AcDbEntity
  8
Roof
  6
ByLayer
 62
  256
370
   -1
100
AcDbLine
 10
9.828571865183761
 20
41.68021512109363
 11
9.978571865183739
 21
41.83021512109366
  0
LINE
  5
7E
100
AcDbEntity
  8
Roof
  6
ByLayer
 62
  256
370
   -1
100
AcDbLine
 10
9.828571865183761
 20
41.98021512109363
 11
9.978571865183739
 21
41.83021512109366
  0
LINE
  5
7F
100
AcDbEntity
  8
Roof
  6
ByLayer
 62
  256
370
   -1
100
AcDbLine
 10
10.59624271927609
 20
41.98021512109363
 11
10.4462427192761
 21
41.83021512109366
  0
LINE
  5
80
100
AcDbEntity
  8
Roof
  6
ByLayer
 62
  256
370
   -1
100
AcDbLine
 10
10.59624271927609
 20
41.68021512109363
 11
10.4462427192761
 21
41.83021512109366
  0
LINE
  5
81
100
AcDbEntity
  8
Roof
  6
ByLayer
 62
  256
370
   -1
100
AcDbLine
 10
10.59624271927609
 20
41.98021512109363
 11
10.59624271927609
 21
41.68021512109363
  0
LINE
  5
82
100
AcDbEntity
  8
Roof
  6
ByLayer
 62
  256
370
   -1
100
AcDbLine
 10
10.3624072922299
 20
41.05217059627826
 11
10.21240729222993
 21
41.20217059627823
  0
LINE
  5
83
100
AcDbEntity
  8
Roof
  6
ByLayer
 62
  256
370
   -1
100
AcDbLine
 10
10.36240729222992
 20
41.05217059627826
 11
10.06240729222992
 21
41.05217059627826
  0
LINE
  5
84
100
AcDbEntity
  8
Roof
  6
ByLayer
 62
  256
370
   -1
100
AcDbLine
 10
10.06240729222992
 20
41.05217059627826
 11
10.21240729222993
 21
41.20217059627823
  0
LINE
  5
85
100
AcDbEntity
  8
Roof
  6
ByLayer
 62
  256
370
   -1
100
AcDbLine
 10
10.3624072922299
 20
42.60825964590906
 11
10.21240729222993
 21
42.45825964590903
  0
LINE
  5
86
100
AcDbEntity
  8
Roof
  6
ByLayer
 62
  256
370
   -1
100
AcDbLine
 10
10.36240729222992
 20
42.60825964590906
 11
10.06240729222992
 21
42.60825964590906
  0
LINE
  5
87
100
AcDbEntity
  8
Roof
  6
ByLayer
 62
  256
370
   -1
100
AcDbLine
 10
10.06240729222992
 20
42.60825964590906
 11
10.21240729222993
 21
42.45825964590903
  0
LINE
  5
88
100
AcDbEntity
  8
Roof
  6
ByLayer
 62
  256
370
   -1
100
AcDbLine
 10
26.78240729222998
 20
37.25021512109366
 11
33.37240729222999
 21
37.25021512109366
  0
LINE
  5
89
100
AcDbEntity
  8
Roof
  6
ByLayer
 62
  256
370
   -1
100
AcDbLine
 10
34.13240729222998
 20
30.80021512109366
 11
34.13240729222998
 21
33.98021512109366
  0
LINE
  5
8A
100
AcDbEntity
  8
Roof
  6
ByLayer
 62
  256
370
   -1
100
AcDbLine
 10
33.37240729222999
 20
40.52021512109366
 11
33.37240729222999
 21
33.98021512109366
  0
LINE
  5
8B
100
AcDbEntity
  8
Roof
  6
ByLayer
 62
  256
370
   -1
100
AcDbLine
 10
34.89240729223002
 20
40.52021512109366
 11
34.89240729223
 21
33.98021512109366
  0
LINE
  5
8C
100
AcDbEntity
  8
Roof
  6
ByLayer
 62
  256
370
   -1
100
AcDbLine
 10
33.37240729222999
 20
40.52021512109366
 11
34.89240729223002
 21
40.52021512109366
  0
LINE
  5
8D
100
AcDbEntity
  8
Roof
  6
ByLayer
 62
  256
370
   -1
100
AcDbLine
 10
33.37240729222999
 20
33.98021512109366
 11
34.89240729223
 21
33.98021512109366
  0
LINE
  5
8E
100
AcDbEntity
  8
Roof
  6
ByLayer
 62
  256
370
   -1
100
AcDbLine
 10
34.13240729222998
 20
40.52021512109366
 11
34.13240729222998
 21
43.70021512109366
  0
LINE
  5
8F
100
AcDbEntity
  8
Roof
  6
ByLayer
 62
  256
370
   -1
100
AcDbLine
 10
34.89240729223
 20
37.25021512109366
 11
49.48240729222999
 21
37.25021512109366
  0
LINE
  5
90
100
AcDbEntity
  8
Roof
  6
ByLayer
 62
  256
370
   -1
100
AcDbLine
 10
26.78240729222998
 20
37.25021512109366
 11
28.13240729222998
 21
34.16021512109369
  0
LINE
  5
91
100
AcDbEntity
  8
Roof
  6
ByLayer
 62
  256
370
   -1
100
AcDbLine
 10
28.13240729222998
 20
34.16021512109369
 11
26.78240729222998
 21
30.90021512109366
  0
LINE
  5
92
100
AcDbEntity
  8
Roof
  6
ByLayer
 62
  256
370
   -1
100
AcDbLine
 10
33.37240729222999
 20
37.25021512109366
 11
28.13240729222998
 21
34.16021512109369
  0
LINE
  5
93
100
AcDbEntity
  8
Roof
  6
ByLayer
 62
  256
370
   -1
100
AcDbLine
 10
28.13240729222998
 20
34.16021512109369
 11
34.13240729222998
 21
30.90021512109366
  0
LINE
  5
94
100
AcDbEntity
  8
Roof
  6
ByLayer
 62
  256
370
   -1
100
AcDbLine
 10
28.28240729222996
 20
33.77637969404753
 11
27.98240729222996
 21
33.77637969404753
  0
LINE
  5
95
100
AcDbEntity
  8
Roof
  6
ByLayer
 62
  256
370
   -1
100
AcDbLine
 10
27.98240729222996
 20
33.77637969404753
 11
28.13240729222997
 21
33.92637969404749
  0
LINE
  5
96
100
AcDbEntity
  8
Roof
  6
ByLayer
 62
  256
370
   -1
100
AcDbLine
 10
28.28240729222995
 20
33.77637969404753
 11
28.13240729222997
 21
33.92637969404749
  0
LINE
  5
97
100
AcDbEntity
  8
Roof
  6
ByLayer
 62
  256
370
   -1
100
AcDbLine
 10
28.28240729222995
 20
34.54405054813983
 11
28.13240729222997
 21
34.39405054813989
  0
LINE
  5
98
100
AcDbEntity
  8
Roof
  6
ByLayer
 62
  256
370
   -1
100
AcDbLine
 10
27.98240729222996
 20
34.54405054813983
 11
28.13240729222997
 21
34.39405054813989
  0
LINE
  5
99
100
AcDbEntity
  8
Roof
  6
ByLayer
 62
  256
370
   -1
100
AcDbLine
 10
28.28240729222996
 20
34.54405054813983
 11
27.98240729222996
 21
34.54405054813983
  0
LINE
  5
9A
100
AcDbEntity
  8
Roof
  6
ByLayer
 62
  256
370
   -1
100
AcDbLine
 10
27.74857186518381
 20
34.31021512109366
 11
27.74857186518381
 21
34.01021512109366
  0
LINE
  5
9B
100
AcDbEntity
  8
Roof
  6
ByLayer
 62
  256
370
   -1
100
AcDbLine
 10
27.74857186518381
 20
34.01021512109366
 11
27.8985718651838
 21
34.16021512109369
  0
LINE
  5
9C
100
AcDbEntity
  8
Roof
  6
ByLayer
 62
  256
370
   -1
100
AcDbLine
 10
27.74857186518381
 20
34.31021512109366
 11
27.8985718651838
 21
34.16021512109369
  0
LINE
  5
9D
100
AcDbEntity
  8
Roof
  6
ByLayer
 62
  256
370
   -1
100
AcDbLine
 10
28.51624271927614
 20
34.31021512109366
 11
28.36624271927616
 21
34.16021512109369
  0
LINE
  5
9E
100
AcDbEntity
  8
Roof
  6
ByLayer
 62
  256
370
   -1
100
AcDbLine
 10
28.51624271927614
 20
34.01021512109366
 11
28.36624271927616
 21
34.16021512109369
  0
LINE
  5
9F
100
AcDbEntity
  8
Roof
  6
ByLayer
 62
  256
370
   -1
100
AcDbLine
 10
28.51624271927614
 20
34.31021512109366
 11
28.51624271927614
 21
34.01021512109366
  0
LINE
  5
A0
100
AcDbEntity
  8
Roof
  6
ByLayer
 62
  256
370
   -1
100
AcDbLine
 10
26.78240729222998
 20
43.60021512109366
 11
28.13240729222998
 21
41.83021512109376
  0
LINE
  5
A1
100
AcDbEntity
  8
Roof
  6
ByLayer
 62
  256
370
   -1
100
AcDbLine
 10
28.13240729222998
 20
41.83021512109376
 11
26.78240729222998
 21
37.25021512109366
  0
LINE
  5
A2
100
AcDbEntity
  8
Roof
  6
ByLayer
 62
  256
370
   -1
100
AcDbLine
 10
34.13240729222998
 20
43.60021512109366
 11
28.13240729222998
 21
41.83021512109376
  0
LINE
  5
A3
100
AcDbEntity
  8
Roof
  6
ByLayer
 62
  256
370
   -1
100
AcDbLine
 10
28.13240729222998
 20
41.83021512109376
 11
33.37240729222999
 21
37.25021512109366
  0
LINE
  5
A4
100
AcDbEntity
  8
Roof
  6
ByLayer
 62
  256
370
   -1
100
AcDbLine
 10
28.28240729222996
 20
41.44637969404756
 11
27.98240729222996
 21
41.44637969404756
  0
LINE
  5
A5
100
AcDbEntity
  8
Roof
  6
ByLayer
 62
  256
370
   -1
100
AcDbLine
 10
27.98240729222996
 20
41.44637969404756
 11
28.13240729222997
 21
41.59637969404755
  0
LINE
  5
A6
100
AcDbEntity
  8
Roof
  6
ByLayer
 62
  256
370
   -1
100
AcDbLine
 10
28.28240729222995
 20
41.44637969404756
 11
28.13240729222997
 21
41.59637969404755
  0
LINE
  5
A7
100
AcDbEntity
  8
Roof
  6
ByLayer
 62
  256
370
   -1
100
AcDbLine
 10
28.28240729222995
 20
42.21405054813983
 11
28.13240729222997
 21
42.06405054813983
  0
LINE
  5
A8
100
AcDbEntity
  8
Roof
  6
ByLayer
 62
  256
370
   -1
100
AcDbLine
 10
27.98240729222996
 20
42.21405054813983
 11
28.13240729222997
 21
42.06405054813983
  0
LINE
  5
A9
100
AcDbEntity
  8
Roof
  6
ByLayer
 62
  256
370
   -1
100
AcDbLine
 10
28.28240729222996
 20
42.21405054813983
 11
27.98240729222996
 21
42.21405054813983
  0
LINE
  5
AA
100
AcDbEntity
  8
Roof
  6
ByLayer
 62
  256
370
   -1
100
AcDbLine
 10
28.51624271927614
 20
41.98021512109363
 11
28.51624271927614
 21
41.68021512109363
  0
LINE
  5
AB
100
AcDbEntity
  8
Roof
  6
ByLayer
 62
  256
370
   -1
100
AcDbLine
 10
28.51624271927614
 20
41.68021512109363
 11
28.36624271927616
 21
41.83021512109376
  0
LINE
  5
AC
100
AcDbEntity
  8
Roof
  6
ByLayer
 62
  256
370
   -1
100
AcDbLine
 10
28.51624271927614
 20
41.98021512109363
 11
28.36624271927616
 21
41.83021512109376
  0
LINE
  5
AD
100
AcDbEntity
  8
Roof
  6
ByLayer
 62
  256
370
   -1
100
AcDbLine
 10
27.74857186518381
 20
41.98021512109363
 11
27.8985718651838
 21
41.83021512109376
  0
LINE
  5
AE
100
AcDbEntity
  8
Roof
  6
ByLayer
 62
  256
370
   -1
100
AcDbLine
 10
27.74857186518381
 20
41.68021512109363
 11
27.8985718651838
 21
41.83021512109376
  0
LINE
  5
AF
100
AcDbEntity
  8
Roof
  6
ByLayer
 62
  256
370
   -1
100
AcDbLine
 10
27.74857186518381
 20
41.98021512109363
 11
27.74857186518381
 21
41.68021512109363
  0
LINE
  5
B0
100
AcDbEntity
  8
Roof
  6
ByLayer
 62
  256
370
   -1
100
AcDbLine
 10
34.13240729222998
 20
43.60021512109366
 11
44.63240729222998
 21
42.83021512109366
  0
LINE
  5
B1
100
AcDbEntity
  8
Roof
  6
ByLayer
 62
  256
370
   -1
100
AcDbLine
 10
44.63240729222998
 20
42.83021512109366
 11
49.48240729223
 21
43.60021512109366
  0
LINE
  5
B2
100
AcDbEntity
  8
Roof
  6
ByLayer
 62
  256
370
   -1
100
AcDbLine
 10
34.89240729223002
 20
37.25021512109366
 11
44.63240729222998
 21
42.83021512109366
  0
LINE
  5
B3
100
AcDbEntity
  8
Roof
  6
ByLayer
 62
  256
370
   -1
100
AcDbLine
 10
44.63240729222998
 20
42.83021512109366
 11
49.48240729222999
 21
37.25021512109366
  0
LINE
  5
B4
100
AcDbEntity
  8
Roof
  6
ByLayer
 62
  256
370
   -1
100
AcDbLine
 10
49.48240729222999
 20
37.25021512109366
 11
44.63240729222998
 21
31.67021512109366
  0
LINE
  5
B5
100
AcDbEntity
  8
Roof
  6
ByLayer
 62
  256
370
   -1
100
AcDbLine
 10
44.63240729222998
 20
31.67021512109366
 11
34.89240729223002
 21
37.25021512109366
  0
LINE
  5
B6
100
AcDbEntity
  8
Roof
  6
ByLayer
 62
  256
370
   -1
100
AcDbLine
 10
34.13240729222998
 20
30.90021512109366
 11
44.63240729222998
 21
31.67021512109366
  0
LINE
  5
B7
100
AcDbEntity
  8
Roof
  6
ByLayer
 62
  256
370
   -1
100
AcDbLine
 10
44.63240729222998
 20
31.67021512109366
 11
49.48240729222997
 21
30.90021512109363
  0
LINE
  5
B8
100
AcDbEntity
  8
Roof
  6
ByLayer
 62
  256
370
   -1
100
AcDbLine
 10
44.24857186518382
 20
42.98021512109363
 11
44.24857186518382
 21
42.68021512109363
  0
LINE
  5
B9
100
AcDbEntity
  8
Roof
  6
ByLayer
 62
  256
370
   -1
100
AcDbLine
 10
44.24857186518382
 20
42.68021512109363
 11
44.3985718651838
 21
42.83021512109366
  0
LINE
  5
BA
100
AcDbEntity
  8
Roof
  6
ByLayer
 62
  256
370
   -1
100
AcDbLine
 10
44.24857186518382
 20
42.98021512109363
 11
44.3985718651838
 21
42.83021512109366
  0
LINE
  5
BB
100
AcDbEntity
  8
Roof
  6
ByLayer
 62
  256
370
   -1
100
AcDbLine
 10
45.01624271927617
 20
42.98021512109363
 11
44.86624271927616
 21
42.83021512109366
  0
LINE
  5
BC
100
AcDbEntity
  8
Roof
  6
ByLayer
 62
  256
370
   -1
100
AcDbLine
 10
45.01624271927617
 20
42.68021512109363
 11
44.86624271927616
 21
42.83021512109366
  0
LINE
  5
BD
100
AcDbEntity
  8
Roof
  6
ByLayer
 62
  256
370
   -1
100
AcDbLine
 10
45.01624271927617
 20
42.98021512109363
 11
45.01624271927617
 21
42.68021512109363
  0
LINE
  5
BE
100
AcDbEntity
  8
Roof
  6
ByLayer
 62
  256
370
   -1
100
AcDbLine
 10
44.78240729222997
 20
43.21405054813983
 11
44.48240729222997
 21
43.21405054813983
  0
LINE
  5
BF
100
AcDbEntity
  8
Roof
  6
ByLayer
 62
  256
370
   -1
100
AcDbLine
 10
44.48240729222997
 20
43.21405054813983
 11
44.63240729222998
 21
43.06405054813983
  0
LINE
  5
C0
100
AcDbEntity
  8
Roof
  6
ByLayer
 62
  256
370
   -1
100
AcDbLine
 10
44.78240729222995
 20
43.21405054813983
 11
44.63240729222998
 21
43.06405054813983
  0
LINE
  5
C1
100
AcDbEntity
  8
Roof
  6
ByLayer
 62
  256
370
   -1
100
AcDbLine
 10
44.78240729222995
 20
42.44637969404743
 11
44.63240729222998
 21
42.59637969404743
  0
LINE
  5
C2
100
AcDbEntity
  8
Roof
  6
ByLayer
 62
  256
370
   -1
100
AcDbLine
 10
44.48240729222997
 20
42.44637969404743
 11
44.63240729222998
 21
42.59637969404743
  0
LINE
  5
C3
100
AcDbEntity
  8
Roof
  6
ByLayer
 62
  256
370
   -1
100
AcDbLine
 10
44.78240729222997
 20
42.44637969404743
 11
44.48240729222997
 21
42.44637969404743
  0
LINE
  5
C4
100
AcDbEntity
  8
Roof
  6
ByLayer
 62
  256
370
   -1
100
AcDbLine
 10
44.24857186518382
 20
31.82021512109366
 11
44.24857186518382
 21
31.52021512109366
  0
LINE
  5
C5
100
AcDbEntity
  8
Roof
  6
ByLayer
 62
  256
370
   -1
100
AcDbLine
 10
44.24857186518382
 20
31.52021512109366
 11
44.3985718651838
 21
31.67021512109366
  0
LINE
  5
C6
100
AcDbEntity
  8
Roof
  6
ByLayer
 62
  256
370
   -1
100
AcDbLine
 10
44.24857186518382
 20
31.82021512109366
 11
44.3985718651838
 21
31.67021512109366
  0
LINE
  5
C7
100
AcDbEntity
  8
Roof
  6
ByLayer
 62
  256
370
   -1
100
AcDbLine
 10
45.01624271927617
 20
31.82021512109366
 11
44.86624271927616
 21
31.67021512109366
  0
LINE
  5
C8
100
AcDbEntity
  8
Roof
  6
ByLayer
 62
  256
370
   -1
100
AcDbLine
 10
45.01624271927617
 20
31.52021512109366
 11
44.86624271927616
 21
31.67021512109366
  0
LINE
  5
C9
100
AcDbEntity
  8
Roof
  6
ByLayer
 62
  256
370
   -1
100
AcDbLine
 10
45.01624271927617
 20
31.82021512109366
 11
45.01624271927617
 21
31.52021512109366
  0
LINE
  5
CA
100
AcDbEntity
  8
Roof
  6
ByLayer
 62
  256
370
   -1
100
AcDbLine
 10
44.78240729222997
 20
32.05405054813983
 11
44.48240729222997
 21
32.05405054813983
  0
LINE
  5
CB
100
AcDbEntity
  8
Roof
  6
ByLayer
 62
  256
370
   -1
100
AcDbLine
 10
44.48240729222997
 20
32.05405054813983
 11
44.63240729222998
 21
31.90405054813986
  0
LINE
  5
CC
100
AcDbEntity
  8
Roof
  6
ByLayer
 62
  256
370
   -1
100
AcDbLine
 10
44.78240729222995
 20
32.05405054813983
 11
44.63240729222998
 21
31.90405054813986
  0
LINE
  5
CD
100
AcDbEntity
  8
Roof
  6
ByLayer
 62
  256
370
   -1
100
AcDbLine
 10
44.78240729222995
 20
31.28637969404749
 11
44.63240729222998
 21
31.43637969404749
  0
LINE
  5
CE
100
AcDbEntity
  8
Roof
  6
ByLayer
 62
  256
370
   -1
100
AcDbLine
 10
44.48240729222997
 20
31.28637969404749
 11
44.63240729222998
 21
31.43637969404749
  0
LINE
  5
CF
100
AcDbEntity
  8
Roof
  6
ByLayer
 62
  256
370
   -1
100
AcDbLine
 10
44.78240729222997
 20
31.28637969404749
 11
44.48240729222997
 21
31.28637969404749
  0
LINE
  5
D0
100
AcDbEntity
  8
Flooring
  6
ByLayer
 62
  256
370
   -1
100
AcDbLine
 10
3.632407292229935
 20
36.75021512109355
 11
26.68240729222997
 21
36.75021512109366
  0
LINE
  5
D1
100
AcDbEntity
  8
Flooring
  6
ByLayer
 62
  256
370
   -1
100
AcDbLine
 10
10.63240729222994
 20
27.75021512109369
 11
41.63240729222998
 21
27.75021512109369
  0
LINE
  5
D2
100
AcDbEntity
  8
Flooring
  6
ByLayer
 62
  256
370
   -1
100
AcDbLine
 10
41.63240729222998
 20
43.75021512109366
 11
12.33240729222987
 21
43.75021512109366
  0
LINE
  5
D3
100
AcDbEntity
  8
Flooring
  6
ByLayer
 62
  256
370
   -1
100
AcDbLine
 10
26.68240729222998
 20
42.75021512109366
 11
12.33240729222987
 21
42.75021512109375
  0
LINE
  5
D4
100
AcDbEntity
  8
Flooring
  6
ByLayer
 62
  256
370
   -1
100
AcDbLine
 10
12.33240729222987
 20
40.75021512109366
 11
26.68240729222997
 21
40.75021512109366
  0
LINE
  5
D5
100
AcDbEntity
  8
Flooring
  6
ByLayer
 62
  256
370
   -1
100
AcDbLine
 10
3.632407292229935
 20
39.75021512109355
 11
26.68240729222997
 21
39.75021512109366
  0
LINE
  5
D6
100
AcDbEntity
  8
Flooring
  6
ByLayer
 62
  256
370
   -1
100
AcDbLine
 10
3.632407292229935
 20
38.75021512109355
 11
26.68240729222997
 21
38.75021512109366
  0
LINE
  5
D7
100
AcDbEntity
  8
Flooring
  6
ByLayer
 62
  256
370
   -1
100
AcDbLine
 10
3.632407292229935
 20
37.75021512109366
 11
26.68240729222997
 21
37.75021512109366
  0
LINE
  5
D8
100
AcDbEntity
  8
Flooring
  6
ByLayer
 62
  256
370
   -1
100
AcDbLine
 10
41.63240729222998
 20
26.75021512109369
 11
2.632407292229935
 21
26.75021512109363
  0
LINE
  5
D9
100
AcDbEntity
  8
Flooring
  6
ByLayer
 62
  256
370
   -1
100
AcDbLine
 10
9.632407292229864
 20
36.75021512109355
 11
9.632407292229864
 21
40.05021512109366
  0
LINE
  5
DA
100
AcDbEntity
  8
Flooring
  6
ByLayer
 62
  256
370
   -1
100
AcDbLine
 10
6.632407292229821
 20
36.75021512109355
 11
6.632407292229821
 21
40.05021512109366
  0
LINE
  5
DB
100
AcDbEntity
  8
Flooring
  6
ByLayer
 62
  256
370
   -1
100
AcDbLine
 10
5.632407292229821
 20
36.75021512109355
 11
5.632407292229821
 21
40.05021512109366
  0
LINE
  5
DC
100
AcDbEntity
  8
Flooring
  6
ByLayer
 62
  256
370
   -1
100
AcDbLine
 10
4.632407292229807
 20
36.75021512109355
 11
4.632407292229821
 21
40.05021512109366
  0
LINE
  5
DD
100
AcDbEntity
  8
Flooring
  6
ByLayer
 62
  256
370
   -1
100
AcDbLine
 10
7.632407292229843
 20
36.75021512109355
 11
7.632407292229843
 21
40.05021512109366
  0
LINE
  5
DE
100
AcDbEntity
  8
Flooring
  6
ByLayer
 62
  256
370
   -1
100
AcDbLine
 10
8.632407292229843
 20
36.75021512109355
 11
8.632407292229843
 21
40.05021512109366
  0
LINE
  5
DF
100
AcDbEntity
  8
Flooring
  6
ByLayer
 62
  256
370
   -1
100
AcDbLine
 10
15.6324072922299
 20
36.75021512109366
 11
15.6324072922299
 21
41.00021512109366
  0
LINE
  5
E0
100
AcDbEntity
  8
Flooring
  6
ByLayer
 62
  256
370
   -1
100
AcDbLine
 10
14.63240729222988
 20
36.75021512109366
 11
14.6324072922299
 21
41.00021512109366
  0
LINE
  5
E1
100
AcDbEntity
  8
Flooring
  6
ByLayer
 62
  256
370
   -1
100
AcDbLine
 10
13.63240729222988
 20
36.75021512109366
 11
13.63240729222988
 21
41.00021512109366
  0
LINE
  5
E2
100
AcDbEntity
  8
Flooring
  6
ByLayer
 62
  256
370
   -1
100
AcDbLine
 10
12.63240729222987
 20
36.75021512109366
 11
12.63240729222988
 21
41.00021512109366
  0
LINE
  5
E3
100
AcDbEntity
  8
Flooring
  6
ByLayer
 62
  256
370
   -1
100
AcDbLine
 10
11.63240729222987
 20
36.75021512109366
 11
11.63240729222987
 21
40.05021512109366
  0
LINE
  5
E4
100
AcDbEntity
  8
Flooring
  6
ByLayer
 62
  256
370
   -1
100
AcDbLine
 10
10.63240729222986
 20
36.75021512109355
 11
10.63240729222986
 21
40.05021512109366
  0
LINE
  5
E5
100
AcDbEntity
  8
Flooring
  6
ByLayer
 62
  256
370
   -1
100
AcDbLine
 10
2.632407292229935
 20
26.75021512109363
 11
2.632407292229935
 21
28.75021512109363
  0
LINE
  5
E6
100
AcDbEntity
  8
Flooring
  6
ByLayer
 62
  256
370
   -1
100
AcDbLine
 10
3.472407292229938
 20
27.75021512109363
 11
2.632407292229935
 21
27.75021512109363
  0
LINE
  5
E7
100
AcDbEntity
  8
Flooring
  6
ByLayer
 62
  256
370
   -1
100
AcDbLine
 10
7.632407292229985
 20
27.59021512109363
 11
7.632407292229985
 21
26.75021512109363
  0
LINE
  5
E8
100
AcDbEntity
  8
Flooring
  6
ByLayer
 62
  256
370
   -1
100
AcDbLine
 10
6.632407292229971
 20
27.59021512109363
 11
6.632407292229971
 21
26.75021512109363
  0
LINE
  5
E9
100
AcDbEntity
  8
Flooring
  6
ByLayer
 62
  256
370
   -1
100
AcDbLine
 10
5.632407292229971
 20
27.59021512109363
 11
5.632407292229971
 21
26.75021512109363
  0
LINE
  5
EA
100
AcDbEntity
  8
Flooring
  6
ByLayer
 62
  256
370
   -1
100
AcDbLine
 10
4.632407292229956
 20
27.59021512109363
 11
4.632407292229956
 21
26.75021512109363
  0
LINE
  5
EB
100
AcDbEntity
  8
Flooring
  6
ByLayer
 62
  256
370
   -1
100
AcDbLine
 10
3.632407292229956
 20
27.59021512109363
 11
3.632407292229956
 21
26.75021512109363
  0
LINE
  5
EC
100
AcDbEntity
  8
Flooring
  6
ByLayer
 62
  256
370
   -1
100
AcDbLine
 10
10.63240729223
 20
27.75021512109369
 11
10.63240729223
 21
26.75021512109363
  0
LINE
  5
ED
100
AcDbEntity
  8
Flooring
  6
ByLayer
 62
  256
370
   -1
100
AcDbLine
 10
11.63240729223
 20
27.75021512109369
 11
11.63240729223
 21
26.75021512109363
  0
LINE
  5
EE
100
AcDbEntity
  8
Flooring
  6
ByLayer
 62
  256
370
   -1
100
AcDbLine
 10
9.632407292229999
 20
27.59021512109363
 11
9.632407292229999
 21
26.75021512109363
  0
LINE
  5
EF
100
AcDbEntity
  8
Flooring
  6
ByLayer
 62
  256
370
   -1
100
AcDbLine
 10
8.632407292229985
 20
27.59021512109363
 11
8.632407292229985
 21
26.75021512109363
  0
LINE
  5
F0
100
AcDbEntity
  8
Flooring
  6
ByLayer
 62
  256
370
   -1
100
AcDbLine
 10
15.63240729223
 20
27.75021512109369
 11
15.63240729223
 21
26.75021512109366
  0
LINE
  5
F1
100
AcDbEntity
  8
Flooring
  6
ByLayer
 62
  256
370
   -1
100
AcDbLine
 10
14.63240729223
 20
27.75021512109369
 11
14.63240729223
 21
26.75021512109366
  0
LINE
  5
F2
100
AcDbEntity
  8
Flooring
  6
ByLayer
 62
  256
370
   -1
100
AcDbLine
 10
13.63240729223
 20
27.75021512109369
 11
13.63240729223
 21
26.75021512109366
  0
LINE
  5
F3
100
AcDbEntity
  8
Flooring
  6
ByLayer
 62
  256
370
   -1
100
AcDbLine
 10
12.63240729223
 20
27.75021512109369
 11
12.63240729223
 21
26.75021512109366
  0
LINE
  5
F4
100
AcDbEntity
  8
Flooring
  6
ByLayer
 62
  256
370
   -1
100
AcDbLine
 10
2.632407292229935
 20
28.75021512109363
 11
3.472407292229938
 21
28.75021512109363
  0
LINE
  5
F5
100
AcDbEntity
  8
Flooring
  6
ByLayer
 62
  256
370
   -1
100
AcDbLine
 10
15.6324072922299
 20
41.50021512109366
 11
15.6324072922299
 21
41.75021512109366
  0
LINE
  5
F6
100
AcDbEntity
  8
Flooring
  6
ByLayer
 62
  256
370
   -1
100
AcDbLine
 10
14.6324072922299
 20
41.50021512109366
 11
14.6324072922299
 21
41.75021512109366
  0
LINE
  5
F7
100
AcDbEntity
  8
Flooring
  6
ByLayer
 62
  256
370
   -1
100
AcDbLine
 10
15.6324072922299
 20
41.91021512109366
 11
15.6324072922299
 21
43.75021512109366
  0
LINE
  5
F8
100
AcDbEntity
  8
Flooring
  6
ByLayer
 62
  256
370
   -1
100
AcDbLine
 10
14.6324072922299
 20
41.91021512109366
 11
14.6324072922299
 21
43.75021512109366
  0
LINE
  5
F9
100
AcDbEntity
  8
Flooring
  6
ByLayer
 62
  256
370
   -1
100
AcDbLine
 10
13.63240729222988
 20
41.50021512109366
 11
13.63240729222988
 21
41.75021512109366
  0
LINE
  5
FA
100
AcDbEntity
  8
Flooring
  6
ByLayer
 62
  256
370
   -1
100
AcDbLine
 10
12.63240729222988
 20
41.50021512109366
 11
12.63240729222988
 21
41.75021512109366
  0
LINE
  5
FB
100
AcDbEntity
  8
Flooring
  6
ByLayer
 62
  256
370
   -1
100
AcDbLine
 10
13.63240729222988
 20
41.91021512109366
 11
13.63240729222988
 21
43.75021512109366
  0
LINE
  5
FC
100
AcDbEntity
  8
Flooring
  6
ByLayer
 62
  256
370
   -1
100
AcDbLine
 10
12.63240729222988
 20
41.91021512109366
 11
12.63240729222988
 21
43.75021512109366
  0
LINE
  5
FD
100
AcDbEntity
  8
Flooring
  6
ByLayer
 62
  256
370
   -1
100
AcDbLine
 10
54.63240729223
 20
30.75021512109369
 11
23.63240729222995
 21
30.75021512109366
  0
LINE
  5
FE
100
AcDbEntity
  8
Flooring
  6
ByLayer
 62
  256
370
   -1
100
AcDbLine
 10
22.63240729222994
 20
36.75021512109366
 11
22.63240729222995
 21
41.00021512109366
  0
LINE
  5
FF
100
AcDbEntity
  8
Flooring
  6
ByLayer
 62
  256
370
   -1
100
AcDbLine
 10
21.63240729222994
 20
36.75021512109366
 11
21.63240729222994
 21
41.00021512109366
  0
LINE
  5
100
100
AcDbEntity
  8
Flooring
  6
ByLayer
 62
  256
370
   -1
100
AcDbLine
 10
20.63240729222993
 20
36.75021512109366
 11
20.63240729222993
 21
41.00021512109366
  0
LINE
  5
101
100
AcDbEntity
  8
Flooring
  6
ByLayer
 62
  256
370
   -1
100
AcDbLine
 10
19.63240729222993
 20
36.75021512109366
 11
19.63240729222993
 21
41.00021512109366
  0
LINE
  5
102
100
AcDbEntity
  8
Flooring
  6
ByLayer
 62
  256
370
   -1
100
AcDbLine
 10
18.63240729222991
 20
36.75021512109366
 11
18.63240729222992
 21
41.00021512109366
  0
LINE
  5
103
100
AcDbEntity
  8
Flooring
  6
ByLayer
 62
  256
370
   -1
100
AcDbLine
 10
17.63240729222991
 20
36.75021512109366
 11
17.63240729222991
 21
41.00021512109366
  0
LINE
  5
104
100
AcDbEntity
  8
Flooring
  6
ByLayer
 62
  256
370
   -1
100
AcDbLine
 10
16.6324072922299
 20
36.75021512109366
 11
16.63240729222991
 21
41.00021512109366
  0
LINE
  5
105
100
AcDbEntity
  8
Flooring
  6
ByLayer
 62
  256
370
   -1
100
AcDbLine
 10
27.63240729222998
 20
26.75021512109366
 11
27.63240729222998
 21
30.80021512109366
  0
LINE
  5
106
100
AcDbEntity
  8
Flooring
  6
ByLayer
 62
  256
370
   -1
100
AcDbLine
 10
31.63240729222998
 20
43.70021512109366
 11
31.63240729222998
 21
43.75021512109366
  0
LINE
  5
107
100
AcDbEntity
  8
Flooring
  6
ByLayer
 62
  256
370
   -1
100
AcDbLine
 10
30.63240729222998
 20
43.70021512109366
 11
30.63240729222998
 21
43.75021512109366
  0
LINE
  5
108
100
AcDbEntity
  8
Flooring
  6
ByLayer
 62
  256
370
   -1
100
AcDbLine
 10
29.63240729222998
 20
43.70021512109366
 11
29.63240729222998
 21
43.75021512109366
  0
LINE
  5
109
100
AcDbEntity
  8
Flooring
  6
ByLayer
 62
  256
370
   -1
100
AcDbLine
 10
49.63240729222998
 20
31.75021512109369
 11
49.63240729222998
 21
42.75021512109366
  0
LINE
  5
10A
100
AcDbEntity
  8
Flooring
  6
ByLayer
 62
  256
370
   -1
100
AcDbLine
 10
25.63240729222996
 20
26.75021512109366
 11
25.63240729222997
 21
41.00021512109366
  0
LINE
  5
10B
100
AcDbEntity
  8
Flooring
  6
ByLayer
 62
  256
370
   -1
100
AcDbLine
 10
24.63240729222996
 20
26.75021512109366
 11
24.63240729222996
 21
41.00021512109366
  0
LINE
  5
10C
100
AcDbEntity
  8
Flooring
  6
ByLayer
 62
  256
370
   -1
100
AcDbLine
 10
23.63240729222995
 20
26.75021512109366
 11
23.63240729222996
 21
41.00021512109366
  0
LINE
  5
10D
100
AcDbEntity
  8
Flooring
  6
ByLayer
 62
  256
370
   -1
100
AcDbLine
 10
26.63240729222997
 20
26.75021512109366
 11
26.63240729222998
 21
41.75021512109366
  0
LINE
  5
10E
100
AcDbEntity
  8
Flooring
  6
ByLayer
 62
  256
370
   -1
100
AcDbLine
 10
38.63240729222998
 20
28.75021512109369
 11
23.63240729222995
 21
28.75021512109366
  0
LINE
  5
10F
100
AcDbEntity
  8
Flooring
  6
ByLayer
 62
  256
370
   -1
100
AcDbLine
 10
23.63240729222996
 20
35.75021512109363
 11
26.68240729222997
 21
35.75021512109366
  0
LINE
  5
110
100
AcDbEntity
  8
Flooring
  6
ByLayer
 62
  256
370
   -1
100
AcDbLine
 10
23.63240729222996
 20
34.75021512109366
 11
26.68240729222997
 21
34.75021512109366
  0
LINE
  5
111
100
AcDbEntity
  8
Flooring
  6
ByLayer
 62
  256
370
   -1
100
AcDbLine
 10
23.63240729222995
 20
33.75021512109363
 11
26.68240729222997
 21
33.75021512109366
  0
LINE
  5
112
100
AcDbEntity
  8
Flooring
  6
ByLayer
 62
  256
370
   -1
100
AcDbLine
 10
23.63240729222995
 20
32.75021512109366
 11
26.68240729222997
 21
32.75021512109366
  0
LINE
  5
113
100
AcDbEntity
  8
Flooring
  6
ByLayer
 62
  256
370
   -1
100
AcDbLine
 10
38.63240729222998
 20
29.75021512109369
 11
23.63240729222995
 21
29.75021512109366
  0
LINE
  5
114
100
AcDbEntity
  8
Flooring
  6
ByLayer
 62
  256
370
   -1
100
AcDbLine
 10
28.63240729222998
 20
26.75021512109366
 11
28.63240729222998
 21
30.80021512109366
  0
LINE
  5
115
100
AcDbEntity
  8
Flooring
  6
ByLayer
 62
  256
370
   -1
100
AcDbLine
 10
29.63240729222998
 20
26.75021512109366
 11
29.63240729222998
 21
30.80021512109366
  0
LINE
  5
116
100
AcDbEntity
  8
Flooring
  6
ByLayer
 62
  256
370
   -1
100
AcDbLine
 10
30.63240729222998
 20
26.75021512109366
 11
30.63240729222998
 21
30.80021512109366
  0
LINE
  5
117
100
AcDbEntity
  8
Flooring
  6
ByLayer
 62
  256
370
   -1
100
AcDbLine
 10
31.63240729222998
 20
26.75021512109366
 11
31.63240729222998
 21
30.80021512109366
  0
LINE
  5
118
100
AcDbEntity
  8
Flooring
  6
ByLayer
 62
  256
370
   -1
100
AcDbLine
 10
32.63240729223001
 20
30.80021512109366
 11
32.63240729223015
 21
26.75021512109366
  0
LINE
  5
119
100
AcDbEntity
  8
Flooring
  6
ByLayer
 62
  256
370
   -1
100
AcDbLine
 10
19.63240729223
 20
27.75021512109369
 11
19.63240729223
 21
26.75021512109366
  0
LINE
  5
11A
100
AcDbEntity
  8
Flooring
  6
ByLayer
 62
  256
370
   -1
100
AcDbLine
 10
18.63240729223
 20
27.75021512109369
 11
18.63240729223
 21
26.75021512109366
  0
LINE
  5
11B
100
AcDbEntity
  8
Flooring
  6
ByLayer
 62
  256
370
   -1
100
AcDbLine
 10
17.63240729223
 20
27.75021512109369
 11
17.63240729223
 21
26.75021512109366
  0
LINE
  5
11C
100
AcDbEntity
  8
Flooring
  6
ByLayer
 62
  256
370
   -1
100
AcDbLine
 10
16.63240729223
 20
27.75021512109369
 11
16.63240729223
 21
26.75021512109366
  0
LINE
  5
11D
100
AcDbEntity
  8
Flooring
  6
ByLayer
 62
  256
370
   -1
100
AcDbLine
 10
22.63240729223
 20
27.75021512109369
 11
22.63240729223
 21
26.75021512109366
  0
LINE
  5
11E
100
AcDbEntity
  8
Flooring
  6
ByLayer
 62
  256
370
   -1
100
AcDbLine
 10
21.63240729223
 20
27.75021512109369
 11
21.63240729223
 21
26.75021512109366
  0
LINE
  5
11F
100
AcDbEntity
  8
Flooring
  6
ByLayer
 62
  256
370
   -1
100
AcDbLine
 10
20.63240729223
 20
27.75021512109369
 11
20.63240729223
 21
26.75021512109366
  0
LINE
  5
120
100
AcDbEntity
  8
Flooring
  6
ByLayer
 62
  256
370
   -1
100
AcDbLine
 10
26.68240729222997
 20
31.75021512109366
 11
23.63240729222995
 21
31.7502151210936
  0
LINE
  5
121
100
AcDbEntity
  8
Flooring
  6
ByLayer
 62
  256
370
   -1
100
AcDbLine
 10
41.43240729222998
 20
27.75021512109369
 11
41.43240729223
 21
30.75021512109369
  0
LINE
  5
122
100
AcDbEntity
  8
Flooring
  6
ByLayer
 62
  256
370
   -1
100
AcDbLine
 10
41.08240729222999
 20
27.75021512109369
 11
41.08240729222999
 21
30.75021512109369
  0
LINE
  5
123
100
AcDbEntity
  8
Flooring
  6
ByLayer
 62
  256
370
   -1
100
AcDbLine
 10
40.73240729222998
 20
27.75021512109369
 11
40.73240729223
 21
30.75021512109369
  0
LINE
  5
124
100
AcDbEntity
  8
Flooring
  6
ByLayer
 62
  256
370
   -1
100
AcDbLine
 10
40.38240729222998
 20
27.75021512109369
 11
40.38240729222998
 21
30.75021512109369
  0
LINE
  5
125
100
AcDbEntity
  8
Flooring
  6
ByLayer
 62
  256
370
   -1
100
AcDbLine
 10
40.03240729222998
 20
27.75021512109369
 11
40.03240729222998
 21
30.75021512109369
  0
LINE
  5
126
100
AcDbEntity
  8
Flooring
  6
ByLayer
 62
  256
370
   -1
100
AcDbLine
 10
39.68240729222998
 20
27.75021512109369
 11
39.68240729222998
 21
30.75021512109369
  0
LINE
  5
127
100
AcDbEntity
  8
Flooring
  6
ByLayer
 62
  256
370
   -1
100
AcDbLine
 10
39.33240729222997
 20
27.75021512109369
 11
39.33240729222999
 21
30.75021512109369
  0
LINE
  5
128
100
AcDbEntity
  8
Flooring
  6
ByLayer
 62
  256
370
   -1
100
AcDbLine
 10
38.98240729222998
 20
27.75021512109369
 11
38.98240729222998
 21
30.75021512109369
  0
LINE
  5
129
100
AcDbEntity
  8
Flooring
  6
ByLayer
 62
  256
370
   -1
100
AcDbLine
 10
33.63240729223
 20
26.75021512109366
 11
33.63240729222998
 21
30.80021512109366
  0
LINE
  5
12A
100
AcDbEntity
  8
Flooring
  6
ByLayer
 62
  256
370
   -1
100
AcDbLine
 10
34.63240729222998
 20
26.75021512109366
 11
34.63240729222998
 21
30.80021512109366
  0
LINE
  5
12B
100
AcDbEntity
  8
Flooring
  6
ByLayer
 62
  256
370
   -1
100
AcDbLine
 10
35.63240729223
 20
26.75021512109369
 11
35.63240729222998
 21
30.80021512109369
  0
LINE
  5
12C
100
AcDbEntity
  8
Flooring
  6
ByLayer
 62
  256
370
   -1
100
AcDbLine
 10
36.63240729222998
 20
26.75021512109369
 11
36.63240729222998
 21
30.80021512109369
  0
LINE
  5
12D
100
AcDbEntity
  8
Flooring
  6
ByLayer
 62
  256
370
   -1
100
AcDbLine
 10
37.63240729223
 20
26.75021512109369
 11
37.63240729222998
 21
30.80021512109369
  0
LINE
  5
12E
100
AcDbEntity
  8
Flooring
  6
ByLayer
 62
  256
370
   -1
100
AcDbLine
 10
38.63240729222998
 20
26.75021512109366
 11
38.63240729222998
 21
30.80021512109369
  0
LINE
  5
12F
100
AcDbEntity
  8
Flooring
  6
ByLayer
 62
  256
370
   -1
100
AcDbLine
 10
39.63240729222998
 20
27.75021512109369
 11
39.63240729222998
 21
26.75021512109369
  0
LINE
  5
130
100
AcDbEntity
  8
Flooring
  6
ByLayer
 62
  256
370
   -1
100
AcDbLine
 10
40.63240729222998
 20
27.75021512109369
 11
40.63240729222998
 21
26.75021512109369
  0
LINE
  5
131
100
AcDbEntity
  8
Flooring
  6
ByLayer
 62
  256
370
   -1
100
AcDbLine
 10
41.63240729222998
 20
27.75021512109369
 11
41.63240729222998
 21
26.75021512109369
  0
LINE
  5
132
100
AcDbEntity
  8
Flooring
  6
ByLayer
 62
  256
370
   -1
100
AcDbLine
 10
41.43240729223
 20
28.75021512109369
 11
41.08240729222999
 21
28.75021512109369
  0
LINE
  5
133
100
AcDbEntity
  8
Flooring
  6
ByLayer
 62
  256
370
   -1
100
AcDbLine
 10
41.43240729223
 20
29.75021512109369
 11
41.08240729222999
 21
29.75021512109369
  0
LINE
  5
134
100
AcDbEntity
  8
Flooring
  6
ByLayer
 62
  256
370
   -1
100
AcDbLine
 10
40.03240729222998
 20
29.75021512109369
 11
39.68240729222998
 21
29.75021512109369
  0
LINE
  5
135
100
AcDbEntity
  8
Flooring
  6
ByLayer
 62
  256
370
   -1
100
AcDbLine
 10
40.03240729222998
 20
28.75021512109369
 11
39.68240729222998
 21
28.75021512109369
  0
LINE
  5
136
100
AcDbEntity
  8
Flooring
  6
ByLayer
 62
  256
370
   -1
100
AcDbLine
 10
40.73240729223
 20
29.75021512109369
 11
40.38240729222998
 21
29.75021512109369
  0
LINE
  5
137
100
AcDbEntity
  8
Flooring
  6
ByLayer
 62
  256
370
   -1
100
AcDbLine
 10
40.73240729223
 20
28.75021512109369
 11
40.38240729222998
 21
28.75021512109369
  0
LINE
  5
138
100
AcDbEntity
  8
Flooring
  6
ByLayer
 62
  256
370
   -1
100
AcDbLine
 10
41.08240729222999
 20
29.25021512109369
 11
40.73240729222998
 21
29.25021512109369
  0
LINE
  5
139
100
AcDbEntity
  8
Flooring
  6
ByLayer
 62
  256
370
   -1
100
AcDbLine
 10
40.38240729222998
 20
29.25021512109369
 11
40.03240729222998
 21
29.25021512109369
  0
LINE
  5
13A
100
AcDbEntity
  8
Flooring
  6
ByLayer
 62
  256
370
   -1
100
AcDbLine
 10
39.68240729222998
 20
29.25021512109369
 11
39.33240729222997
 21
29.25021512109369
  0
LINE
  5
13B
100
AcDbEntity
  8
Flooring
  6
ByLayer
 62
  256
370
   -1
100
AcDbLine
 10
39.63240729222998
 20
30.75021512109369
 11
39.63240729222998
 21
30.80021512109366
  0
LINE
  5
13C
100
AcDbEntity
  8
Flooring
  6
ByLayer
 62
  256
370
   -1
100
AcDbLine
 10
40.63240729222998
 20
30.75021512109369
 11
40.63240729222998
 21
30.80021512109366
  0
LINE
  5
13D
100
AcDbEntity
  8
Flooring
  6
ByLayer
 62
  256
370
   -1
100
AcDbLine
 10
38.98240729222998
 20
29.25021512109369
 11
38.63240729222998
 21
29.25021512109369
  0
LINE
  5
13E
100
AcDbEntity
  8
Flooring
  6
ByLayer
 62
  256
370
   -1
100
AcDbLine
 10
39.33240729222999
 20
29.75021512109369
 11
38.98240729222998
 21
29.75021512109369
  0
LINE
  5
13F
100
AcDbEntity
  8
Flooring
  6
ByLayer
 62
  256
370
   -1
100
AcDbLine
 10
39.33240729222999
 20
28.75021512109369
 11
38.98240729222998
 21
28.75021512109369
  0
LINE
  5
140
100
AcDbEntity
  8
Flooring
  6
ByLayer
 62
  256
370
   -1
100
AcDbLine
 10
44.63240729223002
 20
30.80021512109366
 11
44.63240729223002
 21
30.75021512109369
  0
LINE
  5
141
100
AcDbEntity
  8
Flooring
  6
ByLayer
 62
  256
370
   -1
100
AcDbLine
 10
43.63240729222998
 20
30.75021512109369
 11
43.63240729222998
 21
30.80021512109366
  0
LINE
  5
142
100
AcDbEntity
  8
Flooring
  6
ByLayer
 62
  256
370
   -1
100
AcDbLine
 10
41.63240729222998
 20
30.75021512109369
 11
41.63240729222998
 21
30.80021512109366
  0
LINE
  5
143
100
AcDbEntity
  8
Flooring
  6
ByLayer
 62
  256
370
   -1
100
AcDbLine
 10
42.63240729222998
 20
30.75021512109369
 11
42.63240729222998
 21
30.80021512109366
  0
LINE
  5
144
100
AcDbEntity
  8
Flooring
  6
ByLayer
 62
  256
370
   -1
100
AcDbLine
 10
49.58240729222999
 20
33.75021512109369
 11
49.63240729222998
 21
33.75021512109369
  0
LINE
  5
145
100
AcDbEntity
  8
Flooring
  6
ByLayer
 62
  256
370
   -1
100
AcDbLine
 10
47.63240729223002
 20
30.80021512109366
 11
47.63240729223002
 21
30.75021512109369
  0
LINE
  5
146
100
AcDbEntity
  8
Flooring
  6
ByLayer
 62
  256
370
   -1
100
AcDbLine
 10
48.63240729223002
 20
30.80021512109366
 11
48.63240729223002
 21
30.75021512109369
  0
LINE
  5
147
100
AcDbEntity
  8
Flooring
  6
ByLayer
 62
  256
370
   -1
100
AcDbLine
 10
49.63240729222999
 20
31.59021512109366
 11
49.63240729223002
 21
30.75021512109369
  0
LINE
  5
148
100
AcDbEntity
  8
Flooring
  6
ByLayer
 62
  256
370
   -1
100
AcDbLine
 10
45.63240729223002
 20
30.80021512109366
 11
45.63240729223002
 21
30.75021512109369
  0
LINE
  5
149
100
AcDbEntity
  8
Flooring
  6
ByLayer
 62
  256
370
   -1
100
AcDbLine
 10
46.63240729223002
 20
30.80021512109366
 11
46.63240729223002
 21
30.75021512109369
  0
LINE
  5
14A
100
AcDbEntity
  8
Flooring
  6
ByLayer
 62
  256
370
   -1
100
AcDbLine
 10
49.58240729222999
 20
34.75021512109372
 11
49.63240729222998
 21
34.75021512109369
  0
LINE
  5
14B
100
AcDbEntity
  8
Flooring
  6
ByLayer
 62
  256
370
   -1
100
AcDbLine
 10
49.58240729222999
 20
35.75021512109366
 11
49.63240729222998
 21
35.75021512109369
  0
LINE
  5
14C
100
AcDbEntity
  8
Flooring
  6
ByLayer
 62
  256
370
   -1
100
AcDbLine
 10
49.58240729222999
 20
36.75021512109366
 11
49.63240729222998
 21
36.75021512109366
  0
LINE
  5
14D
100
AcDbEntity
  8
Flooring
  6
ByLayer
 62
  256
370
   -1
100
AcDbLine
 10
49.58240729222999
 20
37.75021512109366
 11
49.63240729222998
 21
37.75021512109366
  0
LINE
  5
14E
100
AcDbEntity
  8
Flooring
  6
ByLayer
 62
  256
370
   -1
100
AcDbLine
 10
49.58240729222999
 20
38.75021512109366
 11
49.63240729222998
 21
38.75021512109366
  0
LINE
  5
14F
100
AcDbEntity
  8
Flooring
  6
ByLayer
 62
  256
370
   -1
100
AcDbLine
 10
49.58240729223
 20
41.75021512109375
 11
49.63240729222998
 21
41.75021512109366
  0
LINE
  5
150
100
AcDbEntity
  8
Flooring
  6
ByLayer
 62
  256
370
   -1
100
AcDbLine
 10
19.63240729222993
 20
41.50021512109366
 11
19.63240729222993
 21
41.75021512109366
  0
LINE
  5
151
100
AcDbEntity
  8
Flooring
  6
ByLayer
 62
  256
370
   -1
100
AcDbLine
 10
18.63240729222992
 20
41.50021512109366
 11
18.63240729222992
 21
41.75021512109366
  0
LINE
  5
152
100
AcDbEntity
  8
Flooring
  6
ByLayer
 62
  256
370
   -1
100
AcDbLine
 10
19.63240729222993
 20
41.91021512109366
 11
19.63240729222993
 21
43.75021512109366
  0
LINE
  5
153
100
AcDbEntity
  8
Flooring
  6
ByLayer
 62
  256
370
   -1
100
AcDbLine
 10
18.63240729222992
 20
41.91021512109366
 11
18.63240729222992
 21
43.75021512109366
  0
LINE
  5
154
100
AcDbEntity
  8
Flooring
  6
ByLayer
 62
  256
370
   -1
100
AcDbLine
 10
17.63240729222991
 20
41.50021512109366
 11
17.63240729222991
 21
41.75021512109366
  0
LINE
  5
155
100
AcDbEntity
  8
Flooring
  6
ByLayer
 62
  256
370
   -1
100
AcDbLine
 10
16.63240729222991
 20
41.50021512109366
 11
16.63240729222991
 21
41.75021512109366
  0
LINE
  5
156
100
AcDbEntity
  8
Flooring
  6
ByLayer
 62
  256
370
   -1
100
AcDbLine
 10
17.63240729222991
 20
41.91021512109366
 11
17.63240729222991
 21
43.75021512109366
  0
LINE
  5
157
100
AcDbEntity
  8
Flooring
  6
ByLayer
 62
  256
370
   -1
100
AcDbLine
 10
16.63240729222991
 20
41.91021512109366
 11
16.63240729222991
 21
43.75021512109366
  0
LINE
  5
158
100
AcDbEntity
  8
Flooring
  6
ByLayer
 62
  256
370
   -1
100
AcDbLine
 10
23.63240729222996
 20
41.50021512109366
 11
23.63240729222996
 21
41.75021512109366
  0
LINE
  5
159
100
AcDbEntity
  8
Flooring
  6
ByLayer
 62
  256
370
   -1
100
AcDbLine
 10
23.63240729222996
 20
41.91021512109366
 11
23.63240729222996
 21
43.75021512109366
  0
LINE
  5
15A
100
AcDbEntity
  8
Flooring
  6
ByLayer
 62
  256
370
   -1
100
AcDbLine
 10
22.63240729222995
 20
41.50021512109366
 11
22.63240729222995
 21
41.75021512109366
  0
LINE
  5
15B
100
AcDbEntity
  8
Flooring
  6
ByLayer
 62
  256
370
   -1
100
AcDbLine
 10
21.63240729222994
 20
41.50021512109366
 11
21.63240729222994
 21
41.75021512109366
  0
LINE
  5
15C
100
AcDbEntity
  8
Flooring
  6
ByLayer
 62
  256
370
   -1
100
AcDbLine
 10
20.63240729222993
 20
41.50021512109366
 11
20.63240729222993
 21
41.75021512109366
  0
LINE
  5
15D
100
AcDbEntity
  8
Flooring
  6
ByLayer
 62
  256
370
   -1
100
AcDbLine
 10
22.63240729222995
 20
41.91021512109366
 11
22.63240729222995
 21
43.75021512109366
  0
LINE
  5
15E
100
AcDbEntity
  8
Flooring
  6
ByLayer
 62
  256
370
   -1
100
AcDbLine
 10
21.63240729222994
 20
41.91021512109366
 11
21.63240729222994
 21
43.75021512109366
  0
LINE
  5
15F
100
AcDbEntity
  8
Flooring
  6
ByLayer
 62
  256
370
   -1
100
AcDbLine
 10
20.63240729222993
 20
41.91021512109366
 11
20.63240729222993
 21
43.75021512109366
  0
LINE
  5
160
100
AcDbEntity
  8
Flooring
  6
ByLayer
 62
  256
370
   -1
100
AcDbLine
 10
28.63240729222998
 20
43.70021512109366
 11
28.63240729222998
 21
43.75021512109366
  0
LINE
  5
161
100
AcDbEntity
  8
Flooring
  6
ByLayer
 62
  256
370
   -1
100
AcDbLine
 10
27.63240729222998
 20
43.70021512109366
 11
27.63240729222998
 21
43.75021512109366
  0
LINE
  5
162
100
AcDbEntity
  8
Flooring
  6
ByLayer
 62
  256
370
   -1
100
AcDbLine
 10
25.63240729222997
 20
41.50021512109366
 11
25.63240729222997
 21
41.75021512109366
  0
LINE
  5
163
100
AcDbEntity
  8
Flooring
  6
ByLayer
 62
  256
370
   -1
100
AcDbLine
 10
24.63240729222996
 20
41.50021512109366
 11
24.63240729222996
 21
41.75021512109366
  0
LINE
  5
164
100
AcDbEntity
  8
Flooring
  6
ByLayer
 62
  256
370
   -1
100
AcDbLine
 10
26.63240729222998
 20
41.91021512109366
 11
26.63240729222998
 21
43.75021512109366
  0
LINE
  5
165
100
AcDbEntity
  8
Flooring
  6
ByLayer
 62
  256
370
   -1
100
AcDbLine
 10
25.63240729222997
 20
41.91021512109366
 11
25.63240729222997
 21
43.75021512109366
  0
LINE
  5
166
100
AcDbEntity
  8
Flooring
  6
ByLayer
 62
  256
370
   -1
100
AcDbLine
 10
24.63240729222996
 20
41.91021512109366
 11
24.63240729222996
 21
43.75021512109366
  0
LINE
  5
167
100
AcDbEntity
  8
Flooring
  6
ByLayer
 62
  256
370
   -1
100
AcDbLine
 10
32.63240729222998
 20
43.70021512109366
 11
32.63240729222998
 21
43.75021512109366
  0
LINE
  5
168
100
AcDbEntity
  8
Flooring
  6
ByLayer
 62
  256
370
   -1
100
AcDbLine
 10
36.63240729222998
 20
43.70021512109366
 11
36.63240729222998
 21
43.75021512109366
  0
LINE
  5
169
100
AcDbEntity
  8
Flooring
  6
ByLayer
 62
  256
370
   -1
100
AcDbLine
 10
35.63240729222998
 20
43.70021512109366
 11
35.63240729222998
 21
43.75021512109366
  0
LINE
  5
16A
100
AcDbEntity
  8
Flooring
  6
ByLayer
 62
  256
370
   -1
100
AcDbLine
 10
34.63240729222998
 20
43.70021512109366
 11
34.63240729222998
 21
43.75021512109366
  0
LINE
  5
16B
100
AcDbEntity
  8
Flooring
  6
ByLayer
 62
  256
370
   -1
100
AcDbLine
 10
33.63240729222998
 20
43.70021512109366
 11
33.63240729222998
 21
43.75021512109366
  0
LINE
  5
16C
100
AcDbEntity
  8
Flooring
  6
ByLayer
 62
  256
370
   -1
100
AcDbLine
 10
39.63240729222998
 20
43.70021512109366
 11
39.63240729222998
 21
43.75021512109366
  0
LINE
  5
16D
100
AcDbEntity
  8
Flooring
  6
ByLayer
 62
  256
370
   -1
100
AcDbLine
 10
40.63240729222998
 20
43.70021512109366
 11
40.63240729222998
 21
43.75021512109355
  0
LINE
  5
16E
100
AcDbEntity
  8
Flooring
  6
ByLayer
 62
  256
370
   -1
100
AcDbLine
 10
38.63240729222998
 20
43.70021512109366
 11
38.63240729222998
 21
43.75021512109366
  0
LINE
  5
16F
100
AcDbEntity
  8
Flooring
  6
ByLayer
 62
  256
370
   -1
100
AcDbLine
 10
37.63240729222998
 20
43.70021512109366
 11
37.63240729222998
 21
43.75021512109366
  0
LINE
  5
170
100
AcDbEntity
  8
Flooring
  6
ByLayer
 62
  256
370
   -1
100
AcDbLine
 10
41.63240729222998
 20
43.70021512109366
 11
41.63240729222998
 21
43.75021512109366
  0
LINE
  5
171
100
AcDbEntity
  8
Flooring
  6
ByLayer
 62
  256
370
   -1
100
AcDbLine
 10
49.58240729222999
 20
39.75021512109366
 11
49.63240729222998
 21
39.75021512109366
  0
LINE
  5
172
100
AcDbEntity
  8
Flooring
  6
ByLayer
 62
  256
370
   -1
100
AcDbLine
 10
49.58240729222999
 20
40.75021512109366
 11
49.63240729222998
 21
40.75021512109366
  0
LINE
  5
173
100
AcDbEntity
  8
Flooring
  6
ByLayer
 62
  256
370
   -1
100
AcDbLine
 10
53.79240729222998
 20
31.75021512109369
 11
54.63240729223
 21
31.75021512109369
  0
LINE
  5
174
100
AcDbEntity
  8
Flooring
  6
ByLayer
 62
  256
370
   -1
100
AcDbLine
 10
53.79240729222998
 20
32.75021512109369
 11
54.63240729223
 21
32.75021512109369
  0
LINE
  5
175
100
AcDbEntity
  8
Flooring
  6
ByLayer
 62
  256
370
   -1
100
AcDbLine
 10
51.63240729222999
 20
31.59021512109366
 11
51.63240729223002
 21
30.75021512109369
  0
LINE
  5
176
100
AcDbEntity
  8
Flooring
  6
ByLayer
 62
  256
370
   -1
100
AcDbLine
 10
52.63240729222999
 20
31.59021512109366
 11
52.63240729223002
 21
30.75021512109369
  0
LINE
  5
177
100
AcDbEntity
  8
Flooring
  6
ByLayer
 62
  256
370
   -1
100
AcDbLine
 10
53.63240729222999
 20
31.59021512109366
 11
53.63240729223002
 21
30.75021512109369
  0
LINE
  5
178
100
AcDbEntity
  8
Flooring
  6
ByLayer
 62
  256
370
   -1
100
AcDbLine
 10
50.63240729222999
 20
31.59021512109366
 11
50.63240729223002
 21
30.75021512109369
  0
LINE
  5
179
100
AcDbEntity
  8
Flooring
  6
ByLayer
 62
  256
370
   -1
100
AcDbLine
 10
54.63240729223
 20
32.75021512109369
 11
54.63240729223
 21
30.75021512109369
  0
LINE
  5
17A
100
AcDbEntity
  8
Walls
  6
ByLayer
 62
  256
370
   -1
100
AcDbLine
 10
26.68240729222997
 20
41.91021512109366
 11
12.33240729222987
 21
41.91021512109366
  0
LINE
  5
17B
100
AcDbEntity
  8
Walls
  6
ByLayer
 62
  256
370
   -1
100
AcDbLine
 10
26.68240729222997
 20
41.75021512109366
 11
12.33240729222987
 21
41.75021512109366
  0
LINE
  5
17C
100
AcDbEntity
  8
Walls
  6
ByLayer
 62
  256
370
   -1
100
AcDbLine
 10
3.472407292229938
 20
27.59021512109363
 11
3.472407292229938
 21
40.05021512109366
  0
LINE
  5
17D
100
AcDbEntity
  8
Walls
  6
ByLayer
 62
  256
370
   -1
100
AcDbLine
 10
3.632407292229935
 20
27.75021512109363
 11
3.632407292229935
 21
40.05021512109366
  0
LINE
  5
17E
100
AcDbEntity
  8
Walls
  6
ByLayer
 62
  256
370
   -1
100
AcDbLine
 10
3.472407292229938
 20
27.59021512109363
 11
10.63240729222994
 21
27.59021512109363
  0
LINE
  5
17F
100
AcDbEntity
  8
Walls
  6
ByLayer
 62
  256
370
   -1
100
AcDbLine
 10
3.632407292229935
 20
27.75021512109363
 11
10.63240729222994
 21
27.75021512109363
  0
LINE
  5
180
100
AcDbEntity
  8
Walls
  6
ByLayer
 62
  256
370
   -1
100
AcDbLine
 10
10.63240729222994
 20
27.75021512109363
 11
10.63240729222994
 21
27.59021512109363
  0
LINE
  5
181
100
AcDbEntity
  8
Walls
  6
ByLayer
 62
  256
370
   -1
100
AcDbLine
 10
49.58240729222999
 20
42.91021512109366
 11
53.79240729222998
 21
42.91021512109366
  0
LINE
  5
182
100
AcDbEntity
  8
Walls
  6
ByLayer
 62
  256
370
   -1
100
AcDbLine
 10
49.58240729223
 20
42.75021512109366
 11
53.63240729222999
 21
42.75021512109366
  0
LINE
  5
183
100
AcDbEntity
  8
Walls
  6
ByLayer
 62
  256
370
   -1
100
AcDbLine
 10
49.58240729222997
 20
31.75021512109366
 11
53.63240729222999
 21
31.75021512109366
  0
LINE
  5
184
100
AcDbEntity
  8
Walls
  6
ByLayer
 62
  256
370
   -1
100
AcDbLine
 10
49.58240729222997
 20
31.59021512109366
 11
53.79240729222998
 21
31.59021512109366
  0
LINE
  5
185
100
AcDbEntity
  8
Walls
  6
ByLayer
 62
  256
370
   -1
100
AcDbLine
 10
53.63240729222999
 20
31.75021512109366
 11
53.63240729222999
 21
42.75021512109366
  0
LINE
  5
186
100
AcDbEntity
  8
Walls
  6
ByLayer
 62
  256
370
   -1
100
AcDbLine
 10
53.79240729222998
 20
31.59021512109366
 11
53.79240729222998
 21
42.91021512109366
  0
LINE
  5
187
100
AcDbEntity
  8
Furniture
  6
ByLayer
 62
  256
370
   -1
100
AcDbLine
 10
12.33240729222987
 20
41.00021512109355
 11
25.83240729222998
 21
41.00021512109366
  0
LINE
  5
188
100
AcDbEntity
  8
Furniture
  6
ByLayer
 62
  256
370
   -1
100
AcDbLine
 10
25.83240729222998
 20
41.50021512109366
 11
12.33240729222987
 21
41.50021512109366
  0
LINE
  5
189
100
AcDbEntity
  8
Furniture
  6
ByLayer
 62
  256
370
   -1
100
AcDbLine
 10
14.9524072922299
 20
41.00021512109375
 11
14.95240729222988
 21
41.50021512109375
  0
LINE
  5
18A
100
AcDbEntity
  8
Furniture
  6
ByLayer
 62
  256
370
   -1
100
AcDbLine
 10
12.83240729222987
 20
41.00021512109355
 11
12.83240729222987
 21
41.50021512109366
  0
LINE
  5
18B
100
AcDbEntity
  8
Furniture
  6
ByLayer
 62
  256
370
   -1
100
AcDbLine
 10
19.19240729222993
 20
41.00021512109375
 11
19.19240729222993
 21
41.50021512109375
  0
LINE
  5
18C
100
AcDbEntity
  8
Furniture
  6
ByLayer
 62
  256
370
   -1
100
AcDbLine
 10
17.0724072922299
 20
41.00021512109375
 11
17.0724072922299
 21
41.50021512109375
  0
LINE
  5
18D
100
AcDbEntity
  8
Furniture
  6
ByLayer
 62
  256
370
   -1
100
AcDbLine
 10
21.31240729222993
 20
41.00021512109375
 11
21.31240729222993
 21
41.50021512109375
  0
LINE
  5
18E
100
AcDbEntity
  8
Furniture
  6
ByLayer
 62
  256
370
   -1
100
AcDbLine
 10
23.43240729222995
 20
41.00021512109366
 11
23.43240729222995
 21
41.50021512109366
  0
LINE
  5
18F
100
AcDbEntity
  8
Furniture
  6
ByLayer
 62
  256
370
   -1
100
AcDbLine
 10
25.83240729222998
 20
41.00021512109366
 11
25.83240729222998
 21
41.50021512109366
  0
LINE
  5
190
100
AcDbEntity
  8
Projection
  6
ByLayer
 62
  256
370
   -1
100
AcDbLine
 10
33.63240729222998
 20
34.29021512109366
 11
34.63240729223001
 21
34.29021512109366
  0
LINE
  5
191
100
AcDbEntity
  8
Projection
  6
ByLayer
 62
  256
370
   -1
100
AcDbLine
 10
33.63240729222998
 20
40.31021512109363
 11
34.63240729223001
 21
40.31021512109363
  0
LINE
  5
192
100
AcDbEntity
  8
Projection
  6
ByLayer
 62
  256
370
   -1
100
AcDbLine
 10
33.63240729222998
 20
40.31021512109363
 11
33.63240729222998
 21
34.29021512109366
  0
LINE
  5
193
100
AcDbEntity
  8
Projection
  6
ByLayer
 62
  256
370
   -1
100
AcDbLine
 10
34.63240729223001
 20
40.31021512109363
 11
34.63240729223001
 21
34.29021512109366
  0
LINE
  5
194
100
AcDbEntity
  8
Projection
  6
ByLayer
 62
  256
370
   -1
100
AcDbLine
 10
33.53240729222999
 20
40.41021512109366
 11
33.53240729222999
 21
34.19021512109366
  0
LINE
  5
195
100
AcDbEntity
  8
Projection
  6
ByLayer
 62
  256
370
   -1
100
AcDbLine
 10
33.53240729222999
 20
40.41021512109366
 11
34.73240729223002
 21
40.41021512109366
  0
LINE
  5
196
100
AcDbEntity
  8
Projection
  6
ByLayer
 62
  256
370
   -1
100
AcDbLine
 10
34.73240729223002
 20
40.41021512109366
 11
34.73240729223001
 21
34.19021512109366
  0
LINE
  5
197
100
AcDbEntity
  8
Projection
  6
ByLayer
 62
  256
370
   -1
100
AcDbLine
 10
33.53240729222999
 20
34.19021512109366
 11
34.73240729223001
 21
34.19021512109366
  0
LINE
  5
198
100
AcDbEntity
  8
Projection
  6
ByLayer
 62
  256
370
   -1
100
AcDbLine
 10
33.37240729222999
 20
40.05021512109366
 11
34.89240729223002
 21
40.05021512109366
  0
LINE
  5
199
100
AcDbEntity
  8
Projection
  6
ByLayer
 62
  256
370
   -1
100
AcDbLine
 10
33.37240729222999
 20
39.45021512109363
 11
34.89240729223002
 21
39.45021512109363
  0
LINE
  5
19A
100
AcDbEntity
  8
Projection
  6
ByLayer
 62
  256
370
   -1
100
AcDbLine
 10
33.37240729222999
 20
38.85021512109366
 11
34.89240729223002
 21
38.85021512109366
  0
LINE
  5
19B
100
AcDbEntity
  8
Projection
  6
ByLayer
 62
  256
370
   -1
100
AcDbLine
 10
33.37240729222999
 20
38.25021512109366
 11
34.89240729223002
 21
38.25021512109366
  0
LINE
  5
19C
100
AcDbEntity
  8
Projection
  6
ByLayer
 62
  256
370
   -1
100
AcDbLine
 10
33.37240729222999
 20
37.65021512109366
 11
34.89240729223002
 21
37.65021512109366
  0
LINE
  5
19D
100
AcDbEntity
  8
Projection
  6
ByLayer
 62
  256
370
   -1
100
AcDbLine
 10
33.37240729222999
 20
40.00021512109366
 11
34.89240729223002
 21
40.00021512109366
  0
LINE
  5
19E
100
AcDbEntity
  8
Projection
  6
ByLayer
 62
  256
370
   -1
100
AcDbLine
 10
33.37240729222999
 20
39.40021512109366
 11
34.89240729223002
 21
39.40021512109366
  0
LINE
  5
19F
100
AcDbEntity
  8
Projection
  6
ByLayer
 62
  256
370
   -1
100
AcDbLine
 10
33.37240729222999
 20
38.80021512109366
 11
34.89240729223002
 21
38.80021512109366
  0
LINE
  5
1A0
100
AcDbEntity
  8
Projection
  6
ByLayer
 62
  256
370
   -1
100
AcDbLine
 10
33.37240729222999
 20
38.20021512109372
 11
34.89240729223002
 21
38.20021512109372
  0
LINE
  5
1A1
100
AcDbEntity
  8
Projection
  6
ByLayer
 62
  256
370
   -1
100
AcDbLine
 10
33.37240729222999
 20
37.60021512109366
 11
34.89240729223002
 21
37.60021512109366
  0
LINE
  5
1A2
100
AcDbEntity
  8
Projection
  6
ByLayer
 62
  256
370
   -1
100
AcDbLine
 10
33.37240729222999
 20
34.55021512109366
 11
34.89240729223002
 21
34.55021512109366
  0
LINE
  5
1A3
100
AcDbEntity
  8
Projection
  6
ByLayer
 62
  256
370
   -1
100
AcDbLine
 10
33.37240729222999
 20
34.60021512109366
 11
34.89240729223002
 21
34.60021512109366
  0
LINE
  5
1A4
100
AcDbEntity
  8
Projection
  6
ByLayer
 62
  256
370
   -1
100
AcDbLine
 10
33.37240729222999
 20
35.20021512109363
 11
34.89240729223002
 21
35.20021512109363
  0
LINE
  5
1A5
100
AcDbEntity
  8
Projection
  6
ByLayer
 62
  256
370
   -1
100
AcDbLine
 10
33.37240729222999
 20
35.15021512109366
 11
34.89240729223002
 21
35.15021512109366
  0
LINE
  5
1A6
100
AcDbEntity
  8
Projection
  6
ByLayer
 62
  256
370
   -1
100
AcDbLine
 10
33.37240729222999
 20
35.75021512109366
 11
34.89240729223002
 21
35.75021512109366
  0
LINE
  5
1A7
100
AcDbEntity
  8
Projection
  6
ByLayer
 62
  256
370
   -1
100
AcDbLine
 10
33.37240729222999
 20
35.80021512109366
 11
34.89240729223002
 21
35.80021512109366
  0
LINE
  5
1A8
100
AcDbEntity
  8
Projection
  6
ByLayer
 62
  256
370
   -1
100
AcDbLine
 10
33.37240729222999
 20
36.40021512109366
 11
34.89240729223002
 21
36.40021512109366
  0
LINE
  5
1A9
100
AcDbEntity
  8
Projection
  6
ByLayer
 62
  256
370
   -1
100
AcDbLine
 10
33.37240729222999
 20
36.35021512109366
 11
34.89240729223002
 21
36.35021512109366
  0
LINE
  5
1AA
100
AcDbEntity
  8
Projection
  6
ByLayer
 62
  256
370
   -1
100
AcDbLine
 10
33.37240729222999
 20
36.95021512109363
 11
34.89240729223002
 21
36.95021512109363
  0
LINE
  5
1AB
100
AcDbEntity
  8
Projection
  6
ByLayer
 62
  256
370
   -1
100
AcDbLine
 10
33.37240729222999
 20
37.00021512109366
 11
34.89240729223002
 21
37.00021512109366
  0
LINE
  5
1AC
100
AcDbEntity
  8
Doors
  6
ByLayer
 62
  256
370
   -1
100
AcDbLine
 10
52.17048767546837
 20
41.63689405876222
 11
52.27500373225965
 21
41.55695477094326
  0
LINE
  5
1AD
100
AcDbEntity
  8
Doors
  6
ByLayer
 62
  256
370
   -1
100
AcDbLine
 10
52.27500373225965
 20
41.55695477094326
 11
52.34444773464581
 21
41.52437595737096
  0
LINE
  5
1AE
100
AcDbEntity
  8
Doors
  6
ByLayer
 62
  256
370
   -1
100
AcDbLine
 10
52.34444773464581
 20
41.52437595737096
 11
52.38871233630539
 21
41.55384166262842
  0
LINE
  5
1AF
100
AcDbEntity
  8
Doors
  6
ByLayer
 62
  256
370
   -1
100
AcDbLine
 10
52.38871233630539
 20
41.55384166262842
 11
52.41020620810012
 21
41.60607809775071
  0
LINE
  5
1B0
100
AcDbEntity
  8
Doors
  6
ByLayer
 62
  256
370
   -1
100
AcDbLine
 10
52.41020620810012
 20
41.60607809775074
 11
52.41638278583379
 21
41.52002702085699
  0
LINE
  5
1B1
100
AcDbEntity
  8
Doors
  6
ByLayer
 62
  256
370
   -1
100
AcDbLine
 10
52.41638278583379
 20
41.52002702085699
 11
52.36108936899735
 21
41.45243655747628
  0
LINE
  5
1B2
100
AcDbEntity
  8
Doors
  6
ByLayer
 62
  256
370
   -1
100
AcDbLine
 10
52.36108936899735
 20
41.45243655747628
 11
52.28427185155133
 21
41.41865861454677
  0
LINE
  5
1B3
100
AcDbEntity
  8
Doors
  6
ByLayer
 62
  256
370
   -1
100
AcDbLine
 10
52.28427185155133
 20
41.41865861454677
 11
52.29964744656651
 21
41.39099463504543
  0
LINE
  5
1B4
100
AcDbEntity
  8
Doors
  6
ByLayer
 62
  256
370
   -1
100
AcDbLine
 10
52.17048767546837
 20
41.63689405876222
 11
52.14225035977717
 21
41.70982676644802
  0
LINE
  5
1B5
100
AcDbEntity
  8
Doors
  6
ByLayer
 62
  256
370
   -1
100
AcDbLine
 10
52.16098517893894
 20
41.66433288027997
 11
52.099301273585
 21
41.67522598149463
  0
LINE
  5
1B6
100
AcDbEntity
  8
Doors
  6
ByLayer
 62
  256
370
   -1
100
AcDbLine
 10
52.3747661753261
 20
41.69361538935492
 11
52.34622372171513
 21
41.6798717967907
  0
LINE
  5
1B7
100
AcDbEntity
  8
Doors
  6
ByLayer
 62
  256
370
   -1
100
AcDbLine
 10
52.34622372171513
 20
41.6798717967907
 11
52.32930948002177
 21
41.66718580616148
  0
LINE
  5
1B8
100
AcDbEntity
  8
Doors
  6
ByLayer
 62
  256
370
   -1
100
AcDbLine
 10
52.32930948002177
 20
41.66718580616148
 11
52.3102813779614
 21
41.6629566005032
  0
LINE
  5
1B9
100
AcDbEntity
  8
Doors
  6
ByLayer
 62
  256
370
   -1
100
AcDbLine
 10
52.3102813779614
 20
41.6629566005032
 11
52.29442489730203
 21
41.66612726731004
  0
LINE
  5
1BA
100
AcDbEntity
  8
Doors
  6
ByLayer
 62
  256
370
   -1
100
AcDbLine
 10
52.29442489730203
 20
41.66612726731004
 11
52.2785690353611
 21
41.68409741388208
  0
LINE
  5
1BB
100
AcDbEntity
  8
Doors
  6
ByLayer
 62
  256
370
   -1
100
AcDbLine
 10
52.2785690353611
 20
41.68409741388208
 11
52.26482774089393
 21
41.71052452220176
  0
LINE
  5
1BC
100
AcDbEntity
  8
Doors
  6
ByLayer
 62
  256
370
   -1
100
AcDbLine
 10
52.26482774089393
 20
41.71052452220176
 11
52.25214380087437
 21
41.74223720067782
  0
LINE
  5
1BD
100
AcDbEntity
  8
Doors
  6
ByLayer
 62
  256
370
   -1
100
AcDbLine
 10
52.32480899284686
 20
41.52466553527552
 11
52.32370544664885
 21
41.47938436155197
  0
LINE
  5
1BE
100
AcDbEntity
  8
Doors
  6
ByLayer
 62
  256
370
   -1
100
AcDbLine
 10
52.32370544664885
 20
41.47938436155201
 11
52.2994090808706
 21
41.43520804217407
  0
LINE
  5
1BF
100
AcDbEntity
  8
Doors
  6
ByLayer
 62
  256
370
   -1
100
AcDbLine
 10
52.45405084136466
 20
41.73273165260667
 11
52.42127835124499
 21
41.6809320503761
  0
LINE
  5
1C0
100
AcDbEntity
  8
Doors
  6
ByLayer
 62
  256
370
   -1
100
AcDbLine
 10
52.421278351245
 20
41.6809320503761
 11
52.39379288085055
 21
41.66401718996429
  0
LINE
  5
1C1
100
AcDbEntity
  8
Doors
  6
ByLayer
 62
  256
370
   -1
100
AcDbLine
 10
52.39379288085054
 20
41.66401718996429
 11
52.38110784481548
 21
41.67035930139547
  0
LINE
  5
1C2
100
AcDbEntity
  8
Doors
  6
ByLayer
 62
  256
370
   -1
100
AcDbLine
 10
52.38110784481548
 20
41.67035930139547
 11
52.3821658003038
 21
41.69044436899466
  0
LINE
  5
1C3
100
AcDbEntity
  8
Doors
  6
ByLayer
 62
  256
370
   -1
100
AcDbLine
 10
52.3821658003038
 20
41.69044436899465
 11
52.38005298291931
 21
41.72427170333285
  0
LINE
  5
1C4
100
AcDbEntity
  8
Doors
  6
ByLayer
 62
  256
370
   -1
100
AcDbLine
 10
52.38005298291931
 20
41.72427170333288
 11
52.36736716906676
 21
41.7115858894803
  0
LINE
  5
1C5
100
AcDbEntity
  8
Doors
  6
ByLayer
 62
  256
370
   -1
100
AcDbLine
 10
52.36736716906676
 20
41.7115858894803
 11
52.34093972487134
 21
41.7168703459435
  0
LINE
  5
1C6
100
AcDbEntity
  8
Doors
  6
ByLayer
 62
  256
370
   -1
100
AcDbLine
 10
52.34093972487134
 20
41.7168703459435
 11
52.31345591617784
 21
41.74012555001948
  0
LINE
  5
1C7
100
AcDbEntity
  8
Doors
  6
ByLayer
 62
  256
370
   -1
100
AcDbLine
 10
52.31345591617784
 20
41.74012555001948
 11
52.30077211757964
 21
41.77606665633635
  0
LINE
  5
1C8
100
AcDbEntity
  8
Doors
  6
ByLayer
 62
  256
370
   -1
100
AcDbLine
 10
52.30077211757964
 20
41.77606665633635
 11
52.295486883299
 21
41.78346617524805
  0
LINE
  5
1C9
100
AcDbEntity
  8
Doors
  6
ByLayer
 62
  256
370
   -1
100
AcDbLine
 10
52.295486883299
 20
41.78346617524805
 11
52.27434396627745
 21
41.7644373660809
  0
LINE
  5
1CA
100
AcDbEntity
  8
Doors
  6
ByLayer
 62
  256
370
   -1
100
AcDbLine
 10
52.27434396627745
 20
41.7644373660809
 11
52.25954385011618
 21
41.74963724991963
  0
LINE
  5
1CB
100
AcDbEntity
  8
Doors
  6
ByLayer
 62
  256
370
   -1
100
AcDbLine
 10
52.25954385011618
 20
41.74963724991963
 11
52.24157211255389
 21
41.7274372612932
  0
LINE
  5
1CC
100
AcDbEntity
  8
Doors
  6
ByLayer
 62
  256
370
   -1
100
AcDbLine
 10
52.24157211255389
 20
41.7274372612932
 11
52.23945710313834
 21
41.70840924762115
  0
LINE
  5
1CD
100
AcDbEntity
  8
Doors
  6
ByLayer
 62
  256
370
   -1
100
AcDbLine
 10
52.23945710313834
 20
41.70840924762115
 11
52.24368500064909
 21
41.69572414087544
  0
LINE
  5
1CE
100
AcDbEntity
  8
Doors
  6
ByLayer
 62
  256
370
   -1
100
AcDbLine
 10
52.24368500064909
 20
41.69572414087544
 11
52.22888548552855
 21
41.69572352215699
  0
LINE
  5
1CF
100
AcDbEntity
  8
Doors
  6
ByLayer
 62
  256
370
   -1
100
AcDbLine
 10
52.22888548552855
 20
41.69572352215699
 11
52.20880209730793
 21
41.73483564883411
  0
LINE
  5
1D0
100
AcDbEntity
  8
Doors
  6
ByLayer
 62
  256
370
   -1
100
AcDbLine
 10
52.20880209730794
 20
41.73483564883411
 11
52.21620409109338
 21
41.78874840432486
  0
LINE
  5
1D1
100
AcDbEntity
  8
Doors
  6
ByLayer
 62
  256
370
   -1
100
AcDbLine
 10
52.21620409109338
 20
41.78874840432486
 11
52.23840505199164
 21
41.82997651268936
  0
LINE
  5
1D2
100
AcDbEntity
  8
Doors
  6
ByLayer
 62
  256
370
   -1
100
AcDbLine
 10
52.23840505199164
 20
41.82997651268936
 11
52.26592828188816
 21
41.86693537547403
  0
LINE
  5
1D3
100
AcDbEntity
  8
Doors
  6
ByLayer
 62
  256
370
   -1
100
AcDbLine
 10
52.21620409109338
 20
41.78874840432486
 11
52.18130453538754
 21
41.73440995287417
  0
LINE
  5
1D4
100
AcDbEntity
  8
Doors
  6
ByLayer
 62
  256
370
   -1
100
AcDbLine
 10
52.18130453538754
 20
41.73440995287417
 11
52.1652191112301
 21
41.78129588775993
  0
LINE
  5
1D5
100
AcDbEntity
  8
Doors
  6
ByLayer
 62
  256
370
   -1
100
AcDbLine
 10
52.1652191112301
 20
41.78129588775993
 11
52.15613065009384
 21
41.71971595576306
  0
LINE
  5
1D6
100
AcDbEntity
  8
Doors
  6
ByLayer
 62
  256
370
   -1
100
AcDbLine
 10
52.15613065009384
 20
41.71971595576306
 11
52.06872169837046
 21
41.65744033675948
  0
LINE
  5
1D7
100
AcDbEntity
  8
Doors
  6
ByLayer
 62
  256
370
   -1
100
AcDbLine
 10
52.06872169837045
 20
41.65744033675948
 11
51.99949474241074
 21
41.58326755777413
  0
LINE
  5
1D8
100
AcDbEntity
  8
Doors
  6
ByLayer
 62
  256
370
   -1
100
AcDbLine
 10
51.99949474241075
 20
41.58326755777413
 11
51.98998394407175
 21
41.59572409225283
  0
LINE
  5
1D9
100
AcDbEntity
  8
Doors
  6
ByLayer
 62
  256
370
   -1
100
AcDbLine
 10
51.98998394407175
 20
41.59572409225283
 11
51.95880025217871
 21
41.47172513999719
  0
LINE
  5
1DA
100
AcDbEntity
  8
Doors
  6
ByLayer
 62
  256
370
   -1
100
AcDbLine
 10
51.95880025217871
 20
41.47172513999719
 11
51.94607337309988
 21
41.46654747433563
  0
LINE
  5
1DB
100
AcDbEntity
  8
Doors
  6
ByLayer
 62
  256
370
   -1
100
AcDbLine
 10
51.94607337309988
 20
41.46654747433563
 11
51.95250551690193
 21
41.50181592764925
  0
LINE
  5
1DC
100
AcDbEntity
  8
Doors
  6
ByLayer
 62
  256
370
   -1
100
AcDbLine
 10
51.95250551690193
 20
41.50181592764925
 11
51.89894164789698
 21
41.45479368025376
  0
LINE
  5
1DD
100
AcDbEntity
  8
Doors
  6
ByLayer
 62
  256
370
   -1
100
AcDbLine
 10
51.89894164789698
 20
41.45479368025376
 11
51.88509524200681
 21
41.46697053632285
  0
LINE
  5
1DE
100
AcDbEntity
  8
Doors
  6
ByLayer
 62
  256
370
   -1
100
AcDbLine
 10
51.88509524200681
 20
41.46697053632285
 11
51.91879782503109
 21
41.55192177932915
  0
LINE
  5
1DF
100
AcDbEntity
  8
Doors
  6
ByLayer
 62
  256
370
   -1
100
AcDbLine
 10
51.91879782503109
 20
41.55192177932915
 11
51.96662672216492
 21
41.62035750047838
  0
LINE
  5
1E0
100
AcDbEntity
  8
Doors
  6
ByLayer
 62
  256
370
   -1
100
AcDbLine
 10
51.96662672216492
 20
41.62035750047838
 11
51.96354804995034
 21
41.66808250594836
  0
LINE
  5
1E1
100
AcDbEntity
  8
Doors
  6
ByLayer
 62
  256
370
   -1
100
AcDbLine
 10
51.96354804995034
 20
41.66808250594836
 11
52.09556981806766
 21
41.78115961060553
  0
LINE
  5
1E2
100
AcDbEntity
  8
Doors
  6
ByLayer
 62
  256
370
   -1
100
AcDbLine
 10
52.09556981806766
 20
41.78115961060553
 11
52.11870279873652
 21
41.80070133735407
  0
LINE
  5
1E3
100
AcDbEntity
  8
Doors
  6
ByLayer
 62
  256
370
   -1
100
AcDbLine
 10
52.11870279873652
 20
41.80070133735407
 11
52.12125640881077
 21
41.8090092056369
  0
LINE
  5
1E4
100
AcDbEntity
  8
Doors
  6
ByLayer
 62
  256
370
   -1
100
AcDbLine
 10
52.12125640881075
 20
41.8090092056369
 11
52.17347990387897
 21
41.86738120629958
  0
LINE
  5
1E5
100
AcDbEntity
  8
Doors
  6
ByLayer
 62
  256
370
   -1
100
AcDbLine
 10
52.17347990387898
 20
41.86738120629958
 11
52.2195699900825
 21
41.88887723476997
  0
LINE
  5
1E6
100
AcDbEntity
  8
Doors
  6
ByLayer
 62
  256
370
   -1
100
AcDbLine
 10
52.2195699900825
 20
41.88887723476997
 11
52.27796573185536
 21
41.87349083869874
  0
LINE
  5
1E7
100
AcDbEntity
  8
Doors
  6
ByLayer
 62
  256
370
   -1
100
AcDbLine
 10
52.27796573185536
 20
41.87349083869874
 11
52.28410776742278
 21
41.88578137986058
  0
LINE
  5
1E8
100
AcDbEntity
  8
Doors
  6
ByLayer
 62
  256
370
   -1
100
AcDbLine
 10
52.28410776742278
 20
41.88578137986058
 11
52.35785536310061
 21
41.91034089542749
  0
LINE
  5
1E9
100
AcDbEntity
  8
Doors
  6
ByLayer
 62
  256
370
   -1
100
AcDbLine
 10
52.35785536310061
 20
41.91034089542749
 11
52.42547170658944
 21
41.89187808988329
  0
LINE
  5
1EA
100
AcDbEntity
  8
Doors
  6
ByLayer
 62
  256
370
   -1
100
AcDbLine
 10
52.42547170658944
 20
41.89187808988329
 11
52.46851992548634
 21
41.82425310201406
  0
LINE
  5
1EB
100
AcDbEntity
  8
Doors
  6
ByLayer
 62
  256
370
   -1
100
AcDbLine
 10
52.46851992548634
 20
41.82425310201406
 11
52.45318320366649
 21
41.74128274794457
  0
LINE
  5
1EC
100
AcDbEntity
  8
Doors
  6
ByLayer
 62
  256
370
   -1
100
AcDbLine
 10
52.45318320366649
 20
41.74128274794457
 11
52.46241025773185
 21
41.71976727403766
  0
LINE
  5
1ED
100
AcDbEntity
  8
Doors
  6
ByLayer
 62
  256
370
   -1
100
AcDbLine
 10
52.46241025773185
 20
41.71976727403769
 11
52.50314851787363
 21
41.65425008309483
  0
LINE
  5
1EE
100
AcDbEntity
  8
Doors
  6
ByLayer
 62
  256
370
   -1
100
AcDbLine
 10
52.50314851787363
 20
41.65425008309483
 11
52.49323270644804
 21
41.46160967697193
  0
LINE
  5
1EF
100
AcDbEntity
  8
Doors
  6
ByLayer
 62
  256
370
   -1
100
AcDbLine
 10
52.49323270644804
 20
41.46160967697193
 11
52.33797609893003
 21
41.36198356409294
  0
LINE
  5
1F0
100
AcDbEntity
  8
Doors
  6
ByLayer
 62
  256
370
   -1
100
AcDbLine
 10
52.33797609893003
 20
41.36198356409294
 11
52.30580024783465
 21
41.37255341393575
  0
LINE
  5
1F1
100
AcDbEntity
  8
Doors
  6
ByLayer
 62
  256
370
   -1
100
AcDbLine
 10
52.30580024783465
 20
41.37255341393575
 11
52.24472706391249
 21
41.33525068512335
  0
LINE
  5
1F2
100
AcDbEntity
  8
Doors
  6
ByLayer
 62
  256
370
   -1
100
AcDbLine
 10
52.24472706391249
 20
41.33525068512335
 11
52.16121478320589
 21
41.31516217037863
  0
LINE
  5
1F3
100
AcDbEntity
  8
Doors
  6
ByLayer
 62
  256
370
   -1
100
AcDbLine
 10
52.16121478320589
 20
41.31516217037859
 11
52.09144696126926
 21
41.34475826612652
  0
LINE
  5
1F4
100
AcDbEntity
  8
Doors
  6
ByLayer
 62
  256
370
   -1
100
AcDbLine
 10
52.09144696126926
 20
41.34475826612652
 11
52.11047550527136
 21
41.35955855906451
  0
LINE
  5
1F5
100
AcDbEntity
  8
Doors
  6
ByLayer
 62
  256
370
   -1
100
AcDbLine
 10
52.11047550527136
 20
41.35955855906451
 11
52.17317881781151
 21
41.3690384391595
  0
LINE
  5
1F6
100
AcDbEntity
  8
Doors
  6
ByLayer
 62
  256
370
   -1
100
AcDbLine
 10
52.17317881781151
 20
41.3690384391595
 11
52.14624375933561
 21
41.38505269301943
  0
LINE
  5
1F7
100
AcDbEntity
  8
Doors
  6
ByLayer
 62
  256
370
   -1
100
AcDbLine
 10
52.14624375933561
 20
41.38505269301943
 11
52.14579248378785
 21
41.39373628249047
  0
LINE
  5
1F8
100
AcDbEntity
  8
Doors
  6
ByLayer
 62
  256
370
   -1
100
AcDbLine
 10
52.14579248378785
 20
41.39373628249047
 11
52.21616917769607
 21
41.38647685910975
  0
LINE
  5
1F9
100
AcDbEntity
  8
Doors
  6
ByLayer
 62
  256
370
   -1
100
AcDbLine
 10
52.21616917769608
 20
41.38647685910975
 11
52.27984230486427
 21
41.40940992301387
  0
ENDSEC
  0
SECTION
  2
OBJECTS
  0
DICTIONARY
  5
C
330
0
100
AcDbDictionary
281
    1
  3
ACAD_GROUP
350
D
  0
DICTIONARY
  5
D
330
C
100
AcDbDictionary
281
    1
  0
ENDSEC
  0
EOF
